<?xml version="1.0" encoding="utf-8"?>
<!-- Generator: Adobe Illustrator 24.0.2, SVG Export Plug-In . SVG Version: 6.00 Build 0)  -->
<svg version="1.1" id="Layer_1" xmlns="http://www.w3.org/2000/svg" xmlns:xlink="http://www.w3.org/1999/xlink" x="0px" y="0px"
	 viewBox="0 0 1366 453" style="enable-background:new 0 0 1366 453;" xml:space="preserve">
<style type="text/css">
	.st0{fill:#2D83C8;}
	.st1{fill:#2C80C7;}
	.st2{fill:#2F8BCC;}
	.st3{fill:#3395D1;}
	.st4{fill:#369ED5;}
	.st5{fill:#38A6D9;}
	.st6{fill:#2A79C3;}
	.st7{fill:#266FBF;}
	.st8{fill:#FF8224;}
	.st9{fill:#FF8E1E;}
	.st10{fill:#FF9917;}
	.st11{fill:#FFBE02;}
	.st12{fill:#FFAE0B;}
	.st13{fill:#FF8C1F;}
	.st14{fill:#FFA411;}
	.st15{fill:#FFBA05;}
	.st16{fill:#FF9718;}
	.st17{fill:#8E53D5;}
	.st18{fill:#824CD3;}
	.st19{fill:#B669DD;}
	.st20{fill:#A25ED9;}
	.st21{fill:#7947D1;}
	.st22{fill:#0AA08B;}
	.st23{fill:#1BA887;}
	.st24{fill:#2CAF83;}
	.st25{fill:#3AB580;}
	.st26{fill:#51BF7B;}
	.st27{fill:#75CF72;}
	.st28{fill:#60C677;}
	.st29{fill:#A6E467;}
	.st30{fill:#83D56F;}
	.st31{fill:#98DE6A;}
</style>
<g>
	<polygon class="st0" points="514.45,73.42 514.45,178.05 423.29,126.06 	"/>
	<polygon class="st1" points="514.45,73.42 514.45,178.05 605.61,126.31 	"/>
	<polygon class="st2" points="423.29,126.06 423.29,230.7 514.45,178.95 	"/>
	<polygon class="st3" points="514.45,178.7 514.45,283.34 423.29,231.34 	"/>
	<polygon class="st4" points="423.29,230.7 423.29,335.33 514.45,283.59 	"/>
	<polygon class="st5" points="514.45,283.34 514.45,387.98 423.29,335.98 	"/>
	<polygon class="st6" points="605.61,20.77 605.61,125.41 514.45,73.42 	"/>
	<polygon class="st7" points="605.61,20.77 605.61,125.41 696.77,73.42 	"/>
	<polygon class="st2" points="787.93,126.06 787.93,230.7 696.77,178.95 	"/>
	<polygon class="st3" points="696.77,178.7 696.77,283.34 787.93,231.34 	"/>
	<polygon class="st4" points="787.93,230.7 787.93,335.33 696.77,283.59 	"/>
	<polygon class="st5" points="696.77,283.34 696.77,387.98 787.93,335.98 	"/>
	<polygon class="st1" points="696.77,73.42 696.77,178.05 605.61,126.06 	"/>
	<polygon class="st0" points="696.77,73.42 696.77,178.05 787.93,126.06 	"/>
</g>
<g>
	<polygon class="st8" points="1075.53,73.42 1075.53,178.05 984.37,126.06 	"/>
	<polygon class="st9" points="1075.53,73.42 1075.53,178.05 1166.68,126.31 	"/>
	<polygon class="st10" points="1166.68,231.34 1166.68,335.98 1075.53,283.98 	"/>
	<polygon class="st11" points="1075.53,283.34 1075.53,387.98 984.37,335.98 	"/>
	<polygon class="st12" points="1075.53,283.34 1075.53,387.98 1166.68,336.23 	"/>
	<polygon class="st13" points="1166.68,126.06 1166.68,230.7 1075.53,178.7 	"/>
	<polygon class="st14" points="1166.68,231.34 1166.68,335.98 1257.84,283.98 	"/>
	<polygon class="st15" points="1257.84,283.34 1257.84,387.98 1349,335.98 	"/>
	<polygon class="st12" points="1257.84,283.34 1257.84,387.98 1166.68,336.23 	"/>
	<polygon class="st16" points="1166.68,126.06 1166.68,230.7 1257.84,178.7 	"/>
	<polygon class="st9" points="1257.84,73.42 1257.84,178.05 1166.68,126.06 	"/>
	<polygon class="st8" points="1257.84,73.42 1257.84,178.05 1349,126.06 	"/>
</g>
<g>
	<polygon class="st17" points="931.73,180.62 931.73,285.26 840.57,233.26 	"/>
	<polygon class="st18" points="840.57,127.98 840.57,232.62 931.73,180.88 	"/>
	<polygon class="st19" points="931.73,285.26 931.73,389.9 840.57,337.9 	"/>
	<polygon class="st20" points="840.57,232.62 840.57,337.26 931.73,285.52 	"/>
	<polygon class="st21" points="931.73,75.34 931.73,179.98 840.57,127.98 	"/>
</g>
<g>
	<polygon class="st22" points="108.73,67.64 108.73,172.28 17.58,120.28 	"/>
	<polygon class="st23" points="108.73,67.64 108.73,172.28 199.89,120.53 	"/>
	<polygon class="st23" points="17.58,120.28 17.58,224.92 108.73,173.17 	"/>
	<polygon class="st24" points="108.73,172.92 108.73,277.56 17.58,225.56 	"/>
	<polygon class="st25" points="17.58,224.92 17.58,329.56 108.73,277.81 	"/>
	<polygon class="st26" points="108.73,277.56 108.73,382.2 17.58,330.2 	"/>
	<polygon class="st27" points="199.89,330.2 199.89,434.84 108.73,382.84 	"/>
	<polygon class="st28" points="108.73,277.56 108.73,382.2 199.89,330.45 	"/>
	<polygon class="st24" points="199.89,15 199.89,119.64 108.73,67.64 	"/>
	<polygon class="st25" points="199.89,15 199.89,119.64 291.05,67.64 	"/>
	<polygon class="st29" points="291.05,277.56 291.05,382.2 382.21,330.2 	"/>
	<polygon class="st30" points="199.89,330.2 199.89,434.84 291.05,382.84 	"/>
	<polygon class="st31" points="291.05,277.56 291.05,382.2 199.89,330.45 	"/>
	<polygon class="st23" points="291.05,67.64 291.05,172.28 199.89,120.28 	"/>
	<polygon class="st22" points="291.05,67.64 291.05,172.28 382.21,120.28 	"/>
</g>
</svg>
