<?xml version="1.0" encoding="utf-8"?>
<!-- Generator: Adobe Illustrator 24.0.2, SVG Export Plug-In . SVG Version: 6.00 Build 0)  -->
<svg version="1.1" id="Layer_1" xmlns="http://www.w3.org/2000/svg" xmlns:xlink="http://www.w3.org/1999/xlink" x="0px" y="0px"
	 viewBox="0 0 1366 658" style="enable-background:new 0 0 1366 658;" xml:space="preserve">
<style type="text/css">
	.st0{fill:none;}
	.st1{font-family:'Roboto-Light';}
	.st2{font-size:28.3465px;}
	.st3{fill:#B2B2B2;}
	.st4{fill:#2D83C8;}
	.st5{fill:#2C80C7;}
	.st6{fill:#2F8BCC;}
	.st7{fill:#3395D1;}
	.st8{fill:#369ED5;}
	.st9{fill:#38A6D9;}
	.st10{fill:#2A79C3;}
	.st11{fill:#266FBF;}
	.st12{fill:#FF8224;}
	.st13{fill:#FF8E1E;}
	.st14{fill:#FF9917;}
	.st15{fill:#FFBE02;}
	.st16{fill:#FFAE0B;}
	.st17{fill:#FF9A16;}
	.st18{fill:#FFA411;}
	.st19{fill:#FFBA05;}
	.st20{fill:#FF8125;}
	.st21{fill:#FF772A;}
	.st22{fill:#FF782A;}
	.st23{fill:#8E53D5;}
	.st24{fill:#824CD3;}
	.st25{fill:#B669DD;}
	.st26{fill:#A25ED9;}
	.st27{fill:#7947D1;}
	.st28{fill:#17A688;}
	.st29{fill:#1BA887;}
	.st30{fill:#2CAF83;}
	.st31{fill:#3AB580;}
	.st32{fill:#51BF7B;}
	.st33{fill:#75CF72;}
	.st34{fill:#60C677;}
	.st35{fill:#08A08B;}
	.st36{fill:#18A688;}
	.st37{fill:#A6E467;}
	.st38{fill:#83D56F;}
	.st39{fill:#98DE6A;}
	.st40{fill:#0AA08B;}
	.st41{fill:none;stroke:#000000;stroke-width:2.4094;stroke-miterlimit:10;}
	.st42{fill:none;stroke:#9B9B9B;stroke-width:2.4094;stroke-miterlimit:10;}
	.st43{fill:#E7E7E7;}
	.st44{fill:none;stroke:#E7E7E7;stroke-miterlimit:10;}
	.st45{fill:#FFFFFF;}
</style>
<style type="text/css">

	#app, #window, #workspace, #printer, #cnc, #interface, #logo, #widget1, #widget2, #widget3, #widget4 {
		opacity: 0;
		animation-duration: 30s;
		animation-iteration-count: infinite;
		-webkit-animation-duration: 30s;
		-webkit-animation-iteration-count: infinite;
	}

	#arrowright1, #arrowright2 {
		animation-delay: 7.5s;
		animation-duration: 2s;
		animation-iteration-count: infinite;
		-webkit-animation-duration: 2s;
		-webkit-animation-iteration-count: infinite;
		animation-name: arrowright;
		-webkit-animation-name: arrowright;
	}

	#arrowleft1, #arrowleft2 {
		animation-delay: 7.5s;
		animation-duration: 2s;
		animation-iteration-count: infinite;
		-webkit-animation-duration: 2s;
		-webkit-animation-iteration-count: infinite;
		animation-name: arrowleft;
		-webkit-animation-name: arrowleft;
	}
	
	#app {
		animation-name: app;
		-webkit-animation-name: app;
	}

	#printer {
		animation-name: printer;
		-webkit-animation-name: printer;
	}

	#window {
		animation-name: printer;
		-webkit-animation-name: printer;
	}
	
	#cnc {
		animation-name: cnc;
		-webkit-animation-name: cnc;
	}

	#workspace {
		animation-name: workspace;
		-webkit-animation-name: workspace;
	}
	
	#interface {
		animation-name: interface;
		-webkit-animation-name: interface;
	}

	#logo {
		animation-name: logo;
		-webkit-animation-name: logo;
	}

	#widget1 {
		animation-name: widget1;
		-webkit-animation-name: widget1;
	}
	
	#widget2 {
		animation-name: widget2;
		-webkit-animation-name: widget2;
	}

	#widget3 {
		animation-name: widget3;
		-webkit-animation-name: widget3;
	}

	#widget4 {
		animation-name: widget4;
		-webkit-animation-name: widget4;
	}

	@keyframes arrowright {
		0% {
			transform: translateX(0px);
		}
		50% {
			transform: translateX(15px);
		}
		100% {
			transform: translateX(0px);
		}
	}

	@keyframes arrowleft {
		0% {
			transform: translateX(15px);
		}
		50% {
			transform: translateX(0px);
		}
		100% {
			transform: translateX(15px);
		}
	}

	@keyframes printer {
		4% {
			opacity: 0;
		}
		5% {
			opacity: 1;
		}
		95% {
			opacity: 1;
		}
		100% {
			opacity: 0;
		}
	}

	@keyframes cnc {
		6% {
			opacity: 0;
		}
		7% {
			opacity: 1;
		}
		95% {
			opacity: 1;
		}
		100% {
			opacity: 0;
		}
	}

	@keyframes app {
		10% {
			opacity: 0;
		}
		12% {
			opacity: 1;
		}
		95% {
			opacity: 1;
		}
		100% {
			opacity: 0;
		}
	}

	@keyframes logo {
		15% {
			opacity: 0;
		}
		16% {
			opacity: 1;
		}
		35% {
			opacity: 1;
		}
		37% {
			opacity: 1;
		}
		38% {
			opacity: 0;
		}
	}

	@keyframes window {
		0% {
			opacity: 0;
		}
		14% {
			opacity: 1;
		}
		95% {
			opacity: 1;
		}
		100% {
			opacity: 0;
		}
	}

	@keyframes interface {
		19% {
			opacity: 0;
		}
		20% {
			opacity: 1;
		}
		95% {
			opacity: 1;
		}
		100% {
			opacity: 0;
		}
	}

	@keyframes workspace {
		30% {
			opacity: 0;
		}
		40% {
			opacity: 0;
		}
		41% {
			opacity: 1;
		}
		95% {
			opacity: 1;
		}
		100% {
			opacity: 0;
		}
	}

	@keyframes widget1 {
		30% {
			opacity: 0;
		}
		42% {
			opacity: 0;
		}
		43% {
			opacity: 1;
		}
		80% {
			opacity: 1;
		}
		100% {
			opacity: 0;
		}
	}

	@keyframes widget2 {
		44% {
			opacity: 0;
		}
		45% {
			opacity: 1;
		}
		80% {
			opacity: 1;
		}
		100% {
			opacity: 0;
		}
	}

	@keyframes widget3 {
		46% {
			opacity: 0;
		}
		47% {
			opacity: 1;
		}
		80% {
			opacity: 1;
		}
		100% {
			opacity: 0;
		}
	}

	@keyframes widget4 {
		48% {
			opacity: 0;
		}
		49% {
			opacity: 1;
		}
		80% {
			opacity: 1;
		}
		100% {
			opacity: 0;
		}
	}
</style>
<g id="cnc">
	<g>
		<g>
			<path d="M1065.88,464.9c-0.67,0-1.34-0.03-2.01-0.09c-0.13-0.01-1.18-0.16-0.29-0.02c-0.2-0.03-0.4-0.06-0.6-0.1
				c-1.12-0.2-2.18-0.53-3.24-0.92c0.93,0.34-0.51-0.26-0.76-0.4c-0.36-0.19-0.71-0.4-1.05-0.63c-0.2-0.13-0.39-0.28-0.59-0.41
				c-0.65-0.43,0.43,0.42,0.09,0.06c-0.33-0.35-0.74-0.65-1.09-0.99c-0.26-0.26-0.51-0.53-0.75-0.81c-0.14-0.16-0.27-0.33-0.41-0.5
				c0.67,0.82,0.18,0.24,0.06,0.05c-0.43-0.66-0.86-1.32-1.22-2.02c-0.17-0.32-0.31-0.65-0.47-0.98c-0.32-0.65,0.31,0.84,0.07,0.16
				c-0.04-0.12-0.09-0.23-0.14-0.35c-0.25-0.66-0.47-1.33-0.65-2.01c-0.15-0.55-0.28-1.1-0.39-1.65c-0.05-0.26-0.1-0.53-0.14-0.79
				c-0.01-0.08-0.02-0.16-0.04-0.24c-0.13-0.76,0.09,0.94,0.05,0.4c-0.04-0.48-0.11-0.95-0.12-1.43c-0.02-0.83,0-1.66,0-2.49
				c0-13.05,0-26.1,0-39.15c0-4.2,0-8.4,0-12.6c-1.2,1.2-2.41,2.41-3.61,3.61c5.61,0,11.22,0,16.83,0c13.47,0,26.93,0,40.4,0
				c16.2,0,32.4,0,48.6,0c14.08,0,28.15,0,42.23,0c4.64,0,9.27,0,13.91,0c2.19,0,4.4,0.1,6.58,0c0.09,0,0.19,0,0.28,0
				c-1.2-1.2-2.41-2.41-3.61-3.61c0,5.86,0,11.71,0,17.57c0,9.64,0,19.28,0,28.92c0,2.46,0.01,4.92,0,7.38c0,0.3-0.01,0.6-0.03,0.9
				c-0.01,0.2-0.04,0.41-0.06,0.61c-0.1,1.02,0.16-0.93,0,0.02c-0.12,0.73-0.26,1.45-0.44,2.17c-0.22,0.88-0.51,1.73-0.82,2.58
				c-0.32,0.85,0.23-0.45,0,0.02c-0.1,0.2-0.19,0.42-0.29,0.62c-0.24,0.48-0.49,0.96-0.77,1.42c-0.27,0.45-0.6,0.86-0.87,1.31
				c0.56-0.89,0.08-0.1-0.11,0.11c-0.19,0.22-0.39,0.44-0.59,0.65c-0.39,0.41-0.86,0.75-1.24,1.15c-0.32,0.34,0.58-0.39,0.18-0.13
				c-0.13,0.08-0.25,0.19-0.38,0.28c-0.26,0.18-0.53,0.36-0.81,0.52c-0.54,0.33-1.1,0.6-1.68,0.86c0.88-0.41-0.17,0.05-0.37,0.12
				c-0.35,0.12-0.71,0.23-1.06,0.32c-0.37,0.1-0.75,0.19-1.13,0.26c-0.19,0.04-1.1,0.18-0.72,0.13c0.48-0.06-0.19,0.02-0.3,0.03
				c-0.22,0.02-0.43,0.04-0.65,0.05c-0.51,0.03-1.02,0.05-1.52,0.05c-0.19,0-0.39,0-0.58,0c-4.13,0-8.27,0-12.4,0
				c-8.05,0-16.09,0-24.14,0c-10,0-20,0-30,0c-10.04,0-20.08,0-30.11,0c-8.03,0-16.07,0-24.1,0c-4.12,0-8.24,0-12.36,0
				C1066.24,464.9,1066.06,464.9,1065.88,464.9c-1.95,0-3.61,1.66-3.61,3.61c0,1.96,1.65,3.61,3.61,3.61c2.92,0,5.83,0,8.75,0
				c7.4,0,14.8,0,22.2,0c9.81,0,19.63,0,29.44,0c10.28,0,20.57,0,30.85,0c8.69,0,17.39,0,26.08,0c5.07,0,10.13,0,15.2,0
				c1.57,0,3.12,0.01,4.68-0.19c6.14-0.76,11.48-3.88,14.65-9.27c2.61-4.43,3.3-9.25,3.3-14.26c0-8.68,0-17.36,0-26.04
				c0-8.01,0-16.02,0-24.03c0-0.45,0-0.89,0-1.34c0-1.95-1.66-3.61-3.61-3.61c-5.61,0-11.22,0-16.83,0c-13.47,0-26.93,0-40.4,0
				c-16.2,0-32.4,0-48.6,0c-14.08,0-28.15,0-42.23,0c-6.82,0-13.67-0.17-20.49,0c-0.09,0-0.19,0-0.28,0c-1.95,0-3.61,1.66-3.61,3.61
				c0,11.02,0,22.04,0,33.06c0,6.08,0,12.16,0,18.23c0,2.72,0.08,5.28,0.73,7.96c0.91,3.74,2.7,7.34,5.38,10.12
				c3.86,4.02,9.33,5.72,14.8,5.75c1.95,0.01,3.61-1.67,3.61-3.61C1069.49,466.55,1067.84,464.92,1065.88,464.9z"/>
		</g>
	</g>
	<g>
		<g>
			<path d="M1191.15,447.46c-10.24,0-20.47,0-30.71,0c-2.38,0-4.76,0-7.13,0c-0.55,0-1.11,0-1.66,0c-0.09,0-0.19,0-0.28,0
				c-0.35,0-0.7-0.02-1.05-0.05c0.79,0.08-0.29-0.08-0.38-0.1c-0.33-0.08-0.64-0.19-0.96-0.29c-0.67-0.21-0.2-0.09-0.06-0.02
				c-0.3-0.15-0.59-0.3-0.87-0.47c-0.19-0.11-0.37-0.24-0.55-0.36c-0.81-0.53,0.37,0.45-0.29-0.25c-0.15-0.16-0.32-0.3-0.47-0.46
				c-0.05-0.05-0.75-0.87-0.28-0.27c-0.37-0.48-0.67-1.01-0.94-1.54c-0.28-0.54,0.22,0.78-0.09-0.2c-0.08-0.27-0.17-0.53-0.25-0.8
				c-0.07-0.27-0.13-0.55-0.18-0.82c0.12,0.68,0.01-0.05,0-0.23c-0.02-0.3-0.01-0.6-0.02-0.9c-0.01-2.66,0-5.31,0-7.97
				c0-2.71-0.01-5.42,0-8.13c0-0.15,0-0.3,0-0.46c0-0.23,0.02-0.46,0.02-0.7c0.04-1.02-0.21,0.58,0.06-0.39
				c0.15-0.54,0.27-1.08,0.48-1.6c-0.29,0.71,0.16-0.26,0.2-0.33c0.11-0.19,0.22-0.38,0.34-0.56c0.05-0.08,0.71-0.88,0.22-0.32
				c0.14-0.16,0.29-0.33,0.44-0.48c0.23-0.24,0.47-0.45,0.72-0.67c-0.11,0.1-0.54,0.35,0.05-0.03c0.28-0.18,0.55-0.36,0.84-0.52
				c0.13-0.07,1-0.48,0.33-0.2c0.52-0.22,1.06-0.33,1.6-0.48c1-0.28-0.39,0,0.22-0.04c0.29-0.02,0.58-0.03,0.87-0.04
				c0.08,0,0.16,0,0.25,0c0.53,0,1.06,0,1.59,0c2.31,0,4.62,0,6.93,0c10.34,0,20.69-0.15,31.03,0c0.14,0,1.25,0.09,0.9,0.04
				c-0.52-0.08,0.56,0.13,0.52,0.12c0.27,0.07,0.54,0.15,0.8,0.24c0.17,0.05,0.81,0.36,0.21,0.07c0.25,0.12,0.49,0.25,0.73,0.39
				c0.24,0.14,0.46,0.29,0.69,0.44c0.65,0.43-0.2-0.27,0.29,0.25c0.22,0.23,0.46,0.47,0.69,0.69c0.08,0.08,0.45,0.52,0.06,0.03
				c0.34,0.44,0.58,0.92,0.87,1.39c0.5,0.83-0.13-0.58,0.16,0.35c0.07,0.21,0.14,0.42,0.2,0.64c0.08,0.27,0.14,0.54,0.19,0.82
				c0.05,0.26,0.05,0.22,0-0.12c0.02,0.23,0.04,0.46,0.05,0.69c0.07,2.03,0.01,4.08,0.01,6.12c0,3.13,0,6.26,0,9.38
				c0,0.59,0.01,1.19,0,1.78c0,0.29-0.02,0.58-0.04,0.87c-0.05,0.61,0.23-0.78-0.04,0.22c-0.15,0.54-0.27,1.08-0.48,1.6
				c0.26-0.62-0.04,0.04-0.12,0.19c-0.14,0.23-0.27,0.48-0.42,0.71c-0.12,0.18-0.24,0.37-0.37,0.54c0.45-0.58-0.42,0.4-0.51,0.5
				c-0.16,0.15-0.32,0.3-0.48,0.44c0.56-0.49-0.24,0.17-0.32,0.22c-0.18,0.12-0.37,0.23-0.56,0.34c-0.07,0.04-1.04,0.5-0.33,0.2
				c-0.46,0.19-0.95,0.33-1.44,0.44c-0.17,0.04-0.9,0.14-0.21,0.07C1191.84,447.45,1191.49,447.46,1191.15,447.46
				c-1.95,0.03-3.61,1.64-3.61,3.61c0,1.93,1.65,3.65,3.61,3.61c6.03-0.1,11.45-4.09,13.11-9.95c0.75-2.64,0.5-5.56,0.5-8.28
				c0-3.32,0-6.63,0-9.95c0-3.48-0.2-6.89-2.28-9.88c-2.67-3.84-6.85-6.08-11.54-6.11c-1.66-0.01-3.32,0-4.97,0
				c-6.68,0-13.35,0-20.03,0c-4.79,0-9.57-0.03-14.36,0c-4.7,0.02-8.88,2.25-11.56,6.11c-2.07,2.99-2.28,6.4-2.28,9.88
				c0,3.32,0,6.63,0,9.95c0,2.71-0.24,5.64,0.5,8.28c1.63,5.77,6.97,9.81,12.94,9.95c1.19,0.03,2.38,0,3.58,0
				c11.84,0,23.68,0,35.52,0c0.29,0,0.58,0,0.87,0c1.95,0,3.61-1.66,3.61-3.61C1194.76,449.12,1193.11,447.46,1191.15,447.46z"/>
		</g>
	</g>
	<g>
		<g>
			<path d="M1125.62,423.82c-0.08-6.03-3.81-11.22-9.42-13.34c-5.33-2.01-11.88-0.27-15.5,4.14c-3.8,4.63-4.56,11.2-1.43,16.43
				c3.12,5.22,9.12,7.7,15.03,6.64C1120.87,436.5,1125.53,430.35,1125.62,423.82c0.03-1.89-1.68-3.7-3.61-3.61
				c-1.98,0.09-3.59,1.59-3.61,3.61c0,0.29-0.02,0.59-0.04,0.88c-0.03,0.68,0,0.03,0.02-0.1c-0.09,0.47-0.19,0.93-0.33,1.38
				c-0.08,0.27-0.18,0.53-0.28,0.79c0.05-0.12,0.34-0.67,0.02-0.1c-0.27,0.49-0.54,0.95-0.85,1.42c-0.46,0.69,0.37-0.26-0.03,0.03
				c-0.17,0.13-0.31,0.36-0.46,0.51c-0.17,0.18-1.24,1.07-0.51,0.52c-0.37,0.27-0.75,0.53-1.15,0.75c-0.16,0.09-0.33,0.17-0.49,0.26
				c-0.6,0.35,0.58-0.15-0.29,0.12c-0.45,0.14-0.9,0.28-1.36,0.38c-0.22,0.05-0.87,0.11-0.03,0.03c-0.24,0.02-0.48,0.04-0.73,0.05
				c-0.49,0.02-0.98-0.02-1.47-0.04c-0.57-0.02,0.85,0.19-0.04-0.01c-0.28-0.06-0.55-0.12-0.83-0.2c-0.27-0.08-0.53-0.17-0.8-0.26
				c-0.2-0.07-0.54-0.31,0.09,0.04c-0.4-0.23-0.82-0.41-1.21-0.66c-0.19-0.12-0.37-0.27-0.57-0.39c-0.45-0.26,0.58,0.57-0.02-0.04
				c-0.39-0.39-0.76-0.79-1.15-1.18c0.49,0.49,0.18,0.26,0.06,0.08c-0.15-0.23-0.31-0.46-0.45-0.69c-0.13-0.22-0.71-1.49-0.37-0.63
				c-0.17-0.44-0.32-0.88-0.43-1.34c-0.05-0.18-0.08-0.37-0.12-0.56c-0.17-0.72,0.03,0.64-0.04-0.33c-0.03-0.44-0.03-0.88-0.01-1.32
				c0.01-0.19,0.19-1.09,0-0.19c0.04-0.19,0.07-0.37,0.11-0.56c0.1-0.46,0.25-0.9,0.4-1.35c0.28-0.86-0.37,0.62,0.08-0.16
				c0.14-0.24,0.26-0.49,0.4-0.73c0.12-0.2,0.25-0.39,0.37-0.58c0.12-0.19,0.54-0.62,0.02-0.04c0.31-0.34,0.61-0.68,0.94-1
				c0.02-0.02,0.69-0.63,0.26-0.25c-0.42,0.37,0.26-0.18,0.3-0.21c0.46-0.31,0.95-0.56,1.45-0.81c-0.11,0.06-0.72,0.25-0.09,0.04
				c0.27-0.09,0.53-0.18,0.8-0.26c0.18-0.05,0.37-0.1,0.55-0.14c0.03-0.01,0.95-0.18,0.37-0.08c-0.59,0.09,0.35-0.02,0.39-0.02
				c0.25-0.01,0.49-0.02,0.74-0.01c0.24,0,0.49,0.03,0.73,0.03c0.84,0.03-0.56-0.16,0.18,0.03c0.55,0.14,1.09,0.28,1.63,0.46
				c0.8,0.26-0.36-0.29,0.03,0.02c0.24,0.19,0.59,0.3,0.85,0.46c0.16,0.09,0.31,0.19,0.47,0.3c0.15,0.1,0.3,0.21,0.45,0.32
				c-0.37-0.29-0.4-0.3-0.09-0.05c0.32,0.32,0.65,0.65,0.97,0.97c0.63,0.63-0.37-0.62,0.12,0.13c0.15,0.23,0.31,0.45,0.45,0.69
				c0.14,0.24,0.26,0.49,0.4,0.73c0.37,0.64-0.17-0.61,0.08,0.16c0.17,0.54,0.32,1.08,0.46,1.63c0.05,0.19,0.05,0.68,0-0.11
				c0.03,0.39,0.06,0.78,0.06,1.17c0.03,1.89,1.64,3.7,3.61,3.61C1123.94,427.35,1125.65,425.84,1125.62,423.82z"/>
		</g>
	</g>
	<g>
		<g>
			<path d="M1063,411.95c0,1.8,0,3.6,0,5.39c0,0.25,0,0.51,0,0.76c0,0.93,0.4,1.9,1.06,2.56c0.63,0.63,1.66,1.1,2.56,1.06
				c0.93-0.04,1.9-0.35,2.56-1.06c0.65-0.71,1.06-1.58,1.06-2.56c0-1.8,0-3.6,0-5.39c0-0.25,0-0.51,0-0.76c0-0.93-0.4-1.9-1.06-2.56
				c-0.63-0.63-1.66-1.1-2.56-1.06c-0.93,0.04-1.9,0.35-2.56,1.06C1063.41,410.1,1063,410.97,1063,411.95L1063,411.95z"/>
		</g>
	</g>
	<g>
		<g>
			<path d="M1080.58,412.83c0,1.8,0,3.6,0,5.39c0,0.25,0,0.51,0,0.76c0,0.93,0.4,1.9,1.06,2.56c0.63,0.63,1.66,1.1,2.56,1.06
				c0.93-0.04,1.9-0.35,2.56-1.06c0.65-0.71,1.06-1.58,1.06-2.56c0-1.8,0-3.6,0-5.39c0-0.25,0-0.51,0-0.76c0-0.93-0.4-1.9-1.06-2.56
				c-0.63-0.63-1.66-1.1-2.56-1.06c-0.93,0.04-1.9,0.35-2.56,1.06C1080.99,410.98,1080.58,411.85,1080.58,412.83L1080.58,412.83z"/>
		</g>
	</g>
	<g>
		<g>
			<path d="M1080.58,434.81c0,1.8,0,3.6,0,5.39c0,0.25,0,0.51,0,0.76c0,0.93,0.4,1.9,1.06,2.56c0.63,0.63,1.66,1.1,2.56,1.06
				c0.93-0.04,1.9-0.35,2.56-1.06c0.65-0.71,1.06-1.58,1.06-2.56c0-1.8,0-3.6,0-5.39c0-0.25,0-0.51,0-0.76c0-0.93-0.4-1.9-1.06-2.56
				c-0.63-0.63-1.66-1.1-2.56-1.06c-0.93,0.04-1.9,0.35-2.56,1.06C1080.99,432.96,1080.58,433.83,1080.58,434.81L1080.58,434.81z"/>
		</g>
	</g>
	<g>
		<g>
			<path d="M1063,427.78c0,7.19,0,14.38,0,21.57c0,1.02,0,2.03,0,3.05c0,1.95,1.66,3.61,3.61,3.61c1.96,0,3.61-1.65,3.61-3.61
				c0-7.19,0-14.38,0-21.57c0-1.02,0-2.03,0-3.05c0-1.95-1.66-3.61-3.61-3.61C1064.65,424.16,1063,425.82,1063,427.78L1063,427.78z"
				/>
		</g>
	</g>
	<g>
		<g>
			<path d="M1104.78,509.63c-1.01-1.05-2.02-2.1-3.04-3.15c-0.14-0.15-0.29-0.3-0.43-0.45c-0.33-0.35-0.72-0.6-1.16-0.75
				c-0.43-0.23-0.89-0.33-1.39-0.31c-0.5-0.02-0.96,0.08-1.39,0.31c-0.45,0.15-0.84,0.39-1.16,0.75c-0.63,0.69-1.1,1.59-1.06,2.56
				c0.04,0.32,0.09,0.64,0.13,0.96c0.17,0.61,0.48,1.14,0.93,1.59c1.01,1.05,2.02,2.1,3.04,3.15c0.14,0.15,0.29,0.3,0.43,0.45
				c0.33,0.35,0.72,0.6,1.16,0.75c0.43,0.23,0.89,0.33,1.39,0.31c0.5,0.02,0.96-0.08,1.39-0.31c0.45-0.15,0.84-0.39,1.16-0.75
				c0.63-0.69,1.1-1.59,1.06-2.56c-0.04-0.32-0.09-0.64-0.13-0.96C1105.54,510.62,1105.23,510.08,1104.78,509.63L1104.78,509.63z"/>
		</g>
	</g>
	<g>
		<g>
			<path d="M1094.68,499.11c-3.35-3.48-6.7-6.96-10.05-10.44c-0.47-0.49-0.95-0.99-1.42-1.48c-1.31-1.36-3.81-1.42-5.11,0
				c-1.35,1.47-1.4,3.66,0,5.11c3.35,3.48,6.7,6.96,10.05,10.44c0.47,0.49,0.95,0.99,1.42,1.48c1.31,1.36,3.81,1.42,5.11,0
				C1096.03,502.76,1096.08,500.57,1094.68,499.11L1094.68,499.11z"/>
		</g>
	</g>
	<g>
		<g>
			<path d="M1171.61,507.71c1.05-1.01,2.11-2.01,3.16-3.02c0.15-0.14,0.3-0.29,0.45-0.43c0.35-0.33,0.6-0.72,0.75-1.16
				c0.23-0.43,0.33-0.89,0.31-1.39c0.02-0.5-0.09-0.96-0.31-1.39c-0.15-0.45-0.39-0.84-0.75-1.16c-0.69-0.63-1.59-1.1-2.56-1.06
				c-0.32,0.04-0.64,0.09-0.96,0.13c-0.61,0.17-1.14,0.48-1.59,0.93c-1.05,1.01-2.11,2.01-3.16,3.02c-0.15,0.14-0.3,0.29-0.45,0.43
				c-0.35,0.33-0.6,0.72-0.75,1.16c-0.23,0.43-0.33,0.89-0.31,1.39c-0.02,0.5,0.09,0.96,0.31,1.39c0.15,0.45,0.39,0.84,0.75,1.16
				c0.69,0.63,1.59,1.1,2.56,1.06c0.32-0.04,0.64-0.09,0.96-0.13C1170.62,508.47,1171.16,508.16,1171.61,507.71L1171.61,507.71z"/>
		</g>
	</g>
	<g>
		<g>
			<path d="M1182.17,497.65c3.49-3.33,6.98-6.67,10.47-10c0.5-0.48,1-0.95,1.5-1.43c1.37-1.31,1.42-3.81,0-5.11
				c-1.47-1.35-3.65-1.4-5.11,0c-3.49,3.33-6.98,6.67-10.47,10c-0.5,0.48-1,0.95-1.5,1.43c-1.37,1.31-1.42,3.81,0,5.11
				C1178.53,499,1180.71,499.05,1182.17,497.65L1182.17,497.65z"/>
		</g>
	</g>
	<g>
		<g>
			<path d="M1174.39,523.22c1.28-0.69,2.56-1.38,3.85-2.07c0.19-0.1,0.37-0.2,0.56-0.3c0.42-0.23,0.76-0.54,1.01-0.93
				c0.32-0.35,0.54-0.76,0.65-1.23c0.15-0.48,0.17-0.96,0.06-1.44c-0.02-0.48-0.16-0.93-0.43-1.34c-0.5-0.77-1.24-1.45-2.16-1.66
				c-0.97-0.22-1.9-0.11-2.78,0.36c-1.28,0.69-2.56,1.38-3.85,2.07c-0.19,0.1-0.37,0.2-0.56,0.3c-0.42,0.23-0.76,0.54-1.01,0.93
				c-0.32,0.35-0.54,0.76-0.65,1.23c-0.15,0.48-0.17,0.96-0.06,1.44c0.02,0.48,0.16,0.93,0.43,1.34c0.5,0.77,1.24,1.45,2.16,1.66
				C1172.58,523.81,1173.51,523.7,1174.39,523.22L1174.39,523.22z"/>
		</g>
	</g>
	<g>
		<g>
			<path d="M1187.05,516.07c4.25-2.28,8.49-4.56,12.74-6.84c0.61-0.33,1.23-0.66,1.84-0.99c1.67-0.9,2.33-3.35,1.3-4.94
				c-1.09-1.69-3.16-2.25-4.94-1.3c-4.25,2.28-8.49,4.56-12.74,6.84c-0.61,0.33-1.23,0.66-1.84,0.99c-1.67,0.9-2.33,3.35-1.3,4.94
				C1183.19,516.47,1185.26,517.03,1187.05,516.07L1187.05,516.07z"/>
		</g>
	</g>
	<g>
		<g>
			<path d="M1096.13,524.9c-1.26-0.73-2.53-1.45-3.79-2.18c-0.18-0.1-0.36-0.21-0.54-0.31c-0.41-0.26-0.86-0.41-1.34-0.43
				c-0.48-0.11-0.96-0.09-1.44,0.06c-0.47,0.11-0.88,0.33-1.23,0.65c-0.39,0.25-0.7,0.59-0.93,1.01c-0.44,0.84-0.67,1.85-0.36,2.78
				c0.29,0.89,0.83,1.68,1.66,2.16c1.26,0.73,2.53,1.45,3.79,2.18c0.18,0.1,0.36,0.21,0.54,0.31c0.41,0.26,0.86,0.41,1.34,0.43
				c0.48,0.11,0.96,0.09,1.44-0.06c0.47-0.11,0.88-0.33,1.23-0.65c0.39-0.25,0.7-0.59,0.93-1.01c0.44-0.84,0.67-1.85,0.36-2.78
				C1097.51,526.16,1096.96,525.37,1096.13,524.9L1096.13,524.9z"/>
		</g>
	</g>
	<g>
		<g>
			<path d="M1083.71,517.32c-4.18-2.41-8.36-4.81-12.55-7.22c-0.6-0.34-1.2-0.69-1.8-1.03c-1.64-0.94-4.03-0.44-4.94,1.3
				c-0.91,1.72-0.45,3.94,1.3,4.94c4.18,2.41,8.36,4.81,12.55,7.22c0.6,0.34,1.2,0.69,1.8,1.03c1.64,0.94,4.03,0.44,4.94-1.3
				C1085.92,520.55,1085.47,518.33,1083.71,517.32L1083.71,517.32z"/>
		</g>
	</g>
	<g>
		<g>
			<path d="M1133,486.59c-5.86,0-11.72,0-17.59,0c1.04,0.6,2.08,1.19,3.12,1.79c-2.7-6.32-5.4-12.64-8.11-18.96
				c-0.39-0.91-0.78-1.82-1.17-2.73c-1.04,1.81-2.08,3.63-3.12,5.44c6.05,0,12.1,0,18.15,0c9.64,0,19.29,0,28.93,0
				c2.22,0,4.43,0,6.65,0c-1.04-1.81-2.08-3.63-3.12-5.44c-2.7,6.32-5.4,12.64-8.11,18.96c-0.39,0.91-0.78,1.82-1.17,2.73
				c1.04-0.6,2.08-1.19,3.12-1.79C1144.72,486.59,1138.86,486.59,1133,486.59c-1.95,0-3.61,1.66-3.61,3.61
				c0,1.96,1.65,3.61,3.61,3.61c5.86,0,11.72,0,17.59,0c1.15,0,2.64-0.66,3.12-1.79c2.7-6.32,5.4-12.64,8.11-18.96
				c0.39-0.91,0.78-1.82,1.17-2.73c0.53-1.23,0.72-2.43,0-3.65c-0.64-1.1-1.85-1.79-3.12-1.79c-6.05,0-12.1,0-18.15,0
				c-9.64,0-19.29,0-28.93,0c-2.22,0-4.43,0-6.65,0c-1.27,0-2.48,0.69-3.12,1.79c-0.72,1.22-0.53,2.42,0,3.65
				c2.7,6.32,5.4,12.64,8.11,18.96c0.39,0.91,0.78,1.82,1.17,2.73c0.48,1.13,1.97,1.79,3.12,1.79c5.86,0,11.72,0,17.59,0
				c1.95,0,3.61-1.66,3.61-3.61C1136.61,488.25,1134.96,486.59,1133,486.59L1133,486.59z"/>
		</g>
	</g>
	<g>
		<g>
			<path d="M1119.71,490.21c0,9.59,0,19.19,0,28.78c0,10.8-0.18,21.62,0,32.41c0.1,5.77,4.33,11.65,10.17,12.55
				c4.43,0.68,9.36,0.09,12.56-3.35c2.13-2.29,3.64-5.56,3.82-8.72c0.16-2.66,0.02-5.37,0.02-8.03c0-6.54,0-13.09,0-19.63
				c0-11.13,0-22.26,0-33.39c0-0.21,0-0.42,0-0.63c0-1.95-1.66-3.61-3.61-3.61c-1.96,0-3.61,1.65-3.61,3.61c0,9.18,0,18.36,0,27.54
				c0,11.05,0,22.1,0,33.15c0,0.28-0.03,0.57,0,0.85c0.06,0.48,0.2-1.13,0.1-0.7c-0.09,0.39-0.14,0.78-0.24,1.17
				c-0.15,0.58-0.4,1.13-0.55,1.7c-0.12,0.44,0.44-0.84,0.09-0.23c-0.1,0.18-0.18,0.37-0.28,0.56c-0.21,0.38-0.46,0.74-0.69,1.11
				c-0.16,0.27-0.36,0.21,0.15-0.2c-0.17,0.14-0.31,0.36-0.46,0.51c-0.23,0.23-1.19,0.85-0.36,0.36c-0.36,0.21-0.71,0.43-1.09,0.63
				c0.8-0.44,0.09-0.05-0.13,0.02c-0.27,0.08-0.55,0.14-0.82,0.21c-0.89,0.23,0.72,0.03-0.25,0.03c-0.22,0-0.44,0.02-0.65,0.02
				c-0.29,0-0.59,0-0.88,0s-0.59,0-0.88,0c-0.22,0-0.44-0.02-0.65-0.02c-0.43-0.04-0.42-0.03,0.04,0.02
				c-0.19-0.03-0.38-0.07-0.57-0.11c-0.32-0.08-1.49-0.62-0.67-0.17c-0.37-0.2-0.72-0.42-1.09-0.63c0.81,0.47-0.13-0.13-0.36-0.36
				c-0.16-0.16-0.3-0.35-0.46-0.51c0.33,0.34,0.32,0.47,0.03,0.01c-0.2-0.3-0.39-0.61-0.56-0.92c-0.1-0.18-0.18-0.38-0.28-0.56
				c-0.32-0.56,0.16,0.33,0.12,0.32c-0.28-0.12-0.55-1.63-0.62-1.93c-0.08-0.34-0.12-0.69-0.2-1.03c-0.1-0.42,0.05,1.19,0.1,0.69
				c0.09-0.92,0-1.88,0-2.81c0-2.17,0-4.33,0-6.5c0-6.48,0-12.96,0-19.44c0-10.73,0-21.47,0-32.2c0-0.19,0-0.38,0-0.57
				c0-1.95-1.66-3.61-3.61-3.61C1121.37,486.59,1119.71,488.25,1119.71,490.21L1119.71,490.21z"/>
		</g>
	</g>
	<g>
		<g>
			<path d="M1121.5,510.91c5.38,2.56,10.77,5.13,16.15,7.69c0.77,0.37,1.55,0.74,2.32,1.1c1.7,0.81,3.98,0.53,4.94-1.3
				c0.85-1.61,0.53-4.08-1.3-4.94c-5.38-2.56-10.77-5.13-16.15-7.69c-0.77-0.37-1.55-0.74-2.32-1.1c-1.7-0.81-3.98-0.53-4.94,1.3
				C1119.36,507.58,1119.68,510.05,1121.5,510.91L1121.5,510.91z"/>
		</g>
	</g>
	<g>
		<g>
			<path d="M1121.5,532.9c5.38,2.56,10.77,5.13,16.15,7.69c0.77,0.37,1.55,0.74,2.32,1.1c1.7,0.81,3.98,0.53,4.94-1.3
				c0.85-1.61,0.53-4.08-1.3-4.94c-5.38-2.56-10.77-5.13-16.15-7.69c-0.77-0.37-1.55-0.74-2.32-1.1c-1.7-0.81-3.98-0.53-4.94,1.3
				C1119.36,529.56,1119.68,532.03,1121.5,532.9L1121.5,532.9z"/>
		</g>
	</g>
	<g>
		<g>
			<path d="M1096.95,565.05c10.25,0,20.5,0,30.75,0c4.31,0,8.64,0.1,12.95,0c3.19-0.07,6.55-1.42,9.32-2.86
				c3.55-1.86,6.54-4.57,8.89-7.81c3.14-4.35,4.54-9.65,5.02-14.92c-1.2,1.2-2.41,2.41-3.61,3.61c10.25,0,20.5,0,30.75,0
				c1.47,0,2.95,0,4.42,0c-1.2-1.2-2.41-2.41-3.61-3.61c0,4.95,0,9.9,0,14.85c0,7.89,0,15.78,0,23.68c0,1.81,0,3.62,0,5.43
				c1.2-1.2,2.41-2.41,3.61-3.61c-4.45,0-8.91,0-13.36,0c-10.61,0-21.21,0-31.82,0c-12.91,0-25.82,0-38.72,0
				c-11.09,0-22.18,0-33.26,0c-3.68,0-7.36,0-11.04,0c-1.73,0-3.49-0.09-5.22,0c-0.07,0-0.15,0-0.22,0c1.2,1.2,2.41,2.41,3.61,3.61
				c0-10.51,0-21.03,0-31.54c0-1.5,0-3.01,0-4.51c-1.2,1.2-2.41,2.41-3.61,3.61c10.25,0,20.5,0,30.75,0c1.47,0,2.95,0,4.42,0
				c-1.2-1.2-2.41-2.41-3.61-3.61c0,4.69,0,9.38,0,14.07C1093.33,563.38,1095,565.05,1096.95,565.05c1.96,0,3.61-1.65,3.61-3.61
				c0-4.69,0-9.38,0-14.07c0-1.95-1.66-3.61-3.61-3.61c-10.25,0-20.5,0-30.75,0c-1.47,0-2.95,0-4.42,0c-1.95,0-3.61,1.66-3.61,3.61
				c0,10.51,0,21.03,0,31.54c0,1.5,0,3.01,0,4.51c0,1.95,1.66,3.61,3.61,3.61c4.45,0,8.91,0,13.36,0c10.61,0,21.21,0,31.82,0
				c12.91,0,25.82,0,38.72,0c11.09,0,22.18,0,33.26,0c5.41,0,10.85,0.16,16.26,0c0.07,0,0.15,0,0.22,0c1.95,0,3.61-1.66,3.61-3.61
				c0-4.95,0-9.9,0-14.86c0-7.89,0-15.78,0-23.68c0-1.81,0-3.62,0-5.43c0-1.95-1.66-3.61-3.61-3.61c-10.25,0-20.5,0-30.75,0
				c-1.47,0-2.95,0-4.42,0c-2.09,0-3.43,1.66-3.61,3.61c-0.03,0.37-0.07,0.74-0.11,1.11c0.02-0.16,0.1-0.61-0.02,0.11
				c-0.09,0.57-0.19,1.14-0.31,1.71c-0.24,1.15-0.56,2.29-0.95,3.41c-0.09,0.25-0.64,1.58-0.29,0.8c-0.17,0.39-0.35,0.78-0.55,1.16
				c-0.43,0.84-0.9,1.66-1.43,2.44c-0.14,0.21-0.98,1.27-0.34,0.5c-0.26,0.31-0.52,0.64-0.79,0.94c-0.54,0.61-1.12,1.19-1.74,1.74
				c-0.28,0.25-0.58,0.47-0.85,0.72c-0.36,0.34,0.74-0.53,0.13-0.1c-0.12,0.08-0.23,0.17-0.34,0.25c-0.61,0.44-1.24,0.84-1.89,1.22
				c-0.54,0.31-1.1,0.61-1.67,0.87c-0.25,0.12-0.58,0.21-0.8,0.36c0.01-0.01,0.9-0.35,0.4-0.17c-0.18,0.06-0.35,0.14-0.53,0.21
				c-0.87,0.33-1.77,0.61-2.67,0.83c-0.53,0.13-1.07,0.21-1.6,0.32c-0.38,0.08,1.22-0.06,0.48-0.09c-3.88-0.16-7.81,0-11.7,0
				c-6.61,0-13.22,0-19.82,0c-4.1,0-8.2,0-12.3,0c-1.95,0-3.61,1.66-3.61,3.61C1093.33,563.39,1094.99,565.05,1096.95,565.05z"/>
		</g>
	</g>
	<g>
		<g>
			<path d="M1235,579.8c-1.82,0-3.64,0-5.45,0c-4.95,0-9.89,0-14.84,0c-7.32,0-14.64,0-21.95,0c-8.93,0-17.86,0-26.79,0
				c-9.78,0-19.56,0-29.34,0c-9.87,0-19.74,0-29.62,0c-9.21,0-18.41,0-27.62,0c-7.78,0-15.56,0-23.34,0c-5.59,0-11.18,0-16.78,0
				c-2.65,0-5.3-0.05-7.94,0c-0.11,0-0.23,0-0.34,0c-1.95,0-3.61,1.66-3.61,3.61c0,5.86,0,11.72,0,17.59c0,1.95,1.66,3.61,3.61,3.61
				c1.82,0,3.64,0,5.45,0c4.95,0,9.89,0,14.84,0c7.32,0,14.64,0,21.95,0c8.93,0,17.86,0,26.79,0c9.78,0,19.56,0,29.34,0
				c9.87,0,19.74,0,29.62,0c9.21,0,18.41,0,27.62,0c7.78,0,15.56,0,23.34,0c5.59,0,11.18,0,16.78,0c2.65,0,5.3,0.05,7.94,0
				c0.11,0,0.23,0,0.34,0c1.95,0,3.61-1.66,3.61-3.61c0-5.86,0-11.72,0-17.59C1238.61,581.46,1236.95,579.8,1235,579.8
				c-1.96,0-3.61,1.65-3.61,3.61c0,5.86,0,11.72,0,17.59c1.2-1.2,2.41-2.41,3.61-3.61c-1.82,0-3.64,0-5.45,0c-4.95,0-9.89,0-14.84,0
				c-7.32,0-14.64,0-21.95,0c-8.93,0-17.86,0-26.79,0c-9.78,0-19.56,0-29.34,0c-9.87,0-19.74,0-29.62,0c-9.21,0-18.41,0-27.62,0
				c-7.78,0-15.56,0-23.34,0c-5.59,0-11.18,0-16.78,0c-2.64,0-5.3-0.1-7.94,0c-0.11,0-0.23,0-0.34,0c1.2,1.2,2.41,2.41,3.61,3.61
				c0-5.86,0-11.72,0-17.59c-1.2,1.2-2.41,2.41-3.61,3.61c1.82,0,3.64,0,5.45,0c4.95,0,9.89,0,14.84,0c7.32,0,14.64,0,21.95,0
				c8.93,0,17.86,0,26.79,0c9.78,0,19.56,0,29.34,0c9.87,0,19.74,0,29.62,0c9.21,0,18.41,0,27.62,0c7.78,0,15.56,0,23.34,0
				c5.59,0,11.18,0,16.78,0c2.65,0,5.3,0.05,7.94,0c0.11,0,0.23,0,0.34,0c1.95,0,3.61-1.66,3.61-3.61
				C1238.61,581.45,1236.96,579.8,1235,579.8z"/>
		</g>
	</g>
	<g>
		<g>
			<path d="M1141.79,436.67c6.52,0,13.05,0,19.57,0c10.41,0,20.82,0,31.24,0c2.41,0,4.82,0,7.23,0c1.95,0,3.61-1.66,3.61-3.61
				c0-1.96-1.65-3.61-3.61-3.61c-6.52,0-13.05,0-19.57,0c-10.41,0-20.82,0-31.24,0c-2.41,0-4.82,0-7.23,0
				c-1.95,0-3.61,1.66-3.61,3.61C1138.18,435.01,1139.83,436.67,1141.79,436.67L1141.79,436.67z"/>
		</g>
	</g>
</g>
<g id="interface">
	<rect x="741.67" y="310" class="st0" width="221.33" height="38"/>
	<text transform="matrix(1 0 0 1 759.3281 331.5996)" class="st1 st2">Serial interface</text>
	<g id="arrowright1">
		<g>
			<g>
				<path class="st3" d="M888,128.81c-3.36,0-6.72,0-10.08,0c-8.02,0-16.04,0-24.07,0c-9.74,0-19.49,0-29.23,0
					c-8.39,0-16.78,0-25.17,0c-4.09,0-8.2-0.14-12.29,0c-0.06,0-0.11,0-0.17,0c-4.1,0-4.11,6.38,0,6.38c3.36,0,6.72,0,10.08,0
					c8.02,0,16.04,0,24.07,0c9.74,0,19.49,0,29.23,0c8.39,0,16.78,0,25.17,0c4.09,0,8.2,0.14,12.29,0c0.06,0,0.11,0,0.17,0
					C892.1,135.19,892.11,128.81,888,128.81L888,128.81z"/>
			</g>
		</g>
		<g>
			<g>
				<path class="st3" d="M889.75,118.25c3.79,4.66,7.58,9.33,11.37,13.99c0.54,0.67,1.09,1.34,1.63,2.01c1.06,1.3,3.43,1.18,4.51,0
					c1.27-1.38,1.13-3.12,0-4.51c-3.79-4.66-7.58-9.33-11.37-13.99c-0.54-0.67-1.09-1.34-1.63-2.01c-1.06-1.3-3.43-1.18-4.51,0
					C888.48,115.13,888.62,116.87,889.75,118.25L889.75,118.25z"/>
			</g>
		</g>
		<g>
			<g>
				<path class="st3" d="M894.25,150.25c3.79-4.66,7.58-9.33,11.37-13.99c0.54-0.67,1.09-1.34,1.63-2.01c1.05-1.29,1.36-3.26,0-4.51
					c-1.16-1.07-3.39-1.38-4.51,0c-3.79,4.66-7.58,9.33-11.37,13.99c-0.54,0.67-1.09,1.34-1.63,2.01c-1.05,1.29-1.36,3.26,0,4.51
					C890.91,151.32,893.13,151.64,894.25,150.25L894.25,150.25z"/>
			</g>
		</g>
	</g>
	<g id="arrowleft1">
		<g>
			<g>
				<path class="st3" d="M804,201.19c3.36,0,6.72,0,10.08,0c8.02,0,16.04,0,24.07,0c9.74,0,19.49,0,29.23,0c8.39,0,16.78,0,25.17,0
					c4.09,0,8.2,0.14,12.29,0c0.06,0,0.11,0,0.17,0c4.1,0,4.11-6.38,0-6.38c-3.36,0-6.72,0-10.08,0c-8.02,0-16.04,0-24.07,0
					c-9.74,0-19.49,0-29.23,0c-8.39,0-16.78,0-25.17,0c-4.09,0-8.2-0.14-12.29,0c-0.06,0-0.11,0-0.17,0
					C799.9,194.81,799.89,201.19,804,201.19L804,201.19z"/>
			</g>
		</g>
		<g>
			<g>
				<path class="st3" d="M802.25,211.75c-3.79-4.66-7.58-9.33-11.37-13.99c-0.54-0.67-1.09-1.34-1.63-2.01
					c-1.06-1.3-3.43-1.18-4.51,0c-1.27,1.38-1.13,3.12,0,4.51c3.79,4.66,7.58,9.33,11.37,13.99c0.54,0.67,1.09,1.34,1.63,2.01
					c1.06,1.3,3.43,1.18,4.51,0C803.52,214.87,803.38,213.13,802.25,211.75L802.25,211.75z"/>
			</g>
		</g>
		<g>
			<g>
				<path class="st3" d="M797.75,179.75c-3.79,4.66-7.58,9.33-11.37,13.99c-0.54,0.67-1.09,1.34-1.63,2.01
					c-1.05,1.29-1.36,3.26,0,4.51c1.16,1.07,3.39,1.38,4.51,0c3.79-4.66,7.58-9.33,11.37-13.99c0.54-0.67,1.09-1.34,1.63-2.01
					c1.05-1.29,1.36-3.26,0-4.51C801.09,178.68,798.87,178.36,797.75,179.75L797.75,179.75z"/>
			</g>
		</g>
	</g>
	<g id="arrowright2">
		<g>
			<g>
				<path class="st3" d="M888,473.81c-3.36,0-6.72,0-10.08,0c-8.02,0-16.04,0-24.07,0c-9.74,0-19.49,0-29.23,0
					c-8.39,0-16.78,0-25.17,0c-4.09,0-8.2-0.14-12.29,0c-0.06,0-0.11,0-0.17,0c-4.1,0-4.11,6.38,0,6.38c3.36,0,6.72,0,10.08,0
					c8.02,0,16.04,0,24.07,0c9.74,0,19.49,0,29.23,0c8.39,0,16.78,0,25.17,0c4.09,0,8.2,0.14,12.29,0c0.06,0,0.11,0,0.17,0
					C892.1,480.19,892.11,473.81,888,473.81L888,473.81z"/>
			</g>
		</g>
		<g>
			<g>
				<path class="st3" d="M889.75,463.25c3.79,4.66,7.58,9.33,11.37,13.99c0.54,0.67,1.09,1.34,1.63,2.01c1.06,1.3,3.43,1.18,4.51,0
					c1.27-1.38,1.13-3.12,0-4.51c-3.79-4.66-7.58-9.33-11.37-13.99c-0.54-0.67-1.09-1.34-1.63-2.01c-1.06-1.3-3.43-1.18-4.51,0
					C888.48,460.13,888.62,461.87,889.75,463.25L889.75,463.25z"/>
			</g>
		</g>
		<g>
			<g>
				<path class="st3" d="M894.25,495.25c3.79-4.66,7.58-9.33,11.37-13.99c0.54-0.67,1.09-1.34,1.63-2.01c1.05-1.29,1.36-3.26,0-4.51
					c-1.16-1.07-3.39-1.38-4.51,0c-3.79,4.66-7.58,9.33-11.37,13.99c-0.54,0.67-1.09,1.34-1.63,2.01c-1.05,1.29-1.36,3.26,0,4.51
					C890.91,496.32,893.13,496.64,894.25,495.25L894.25,495.25z"/>
			</g>
		</g>
	</g>
	<g id="arrowleft2">
		<g>
			<g>
				<path class="st3" d="M804,546.19c3.36,0,6.72,0,10.08,0c8.02,0,16.04,0,24.07,0c9.74,0,19.49,0,29.23,0c8.39,0,16.78,0,25.17,0
					c4.09,0,8.2,0.14,12.29,0c0.06,0,0.11,0,0.17,0c4.1,0,4.11-6.38,0-6.38c-3.36,0-6.72,0-10.08,0c-8.02,0-16.04,0-24.07,0
					c-9.74,0-19.49,0-29.23,0c-8.39,0-16.78,0-25.17,0c-4.09,0-8.2-0.14-12.29,0c-0.06,0-0.11,0-0.17,0
					C799.9,539.81,799.89,546.19,804,546.19L804,546.19z"/>
			</g>
		</g>
		<g>
			<g>
				<path class="st3" d="M802.25,556.75c-3.79-4.66-7.58-9.33-11.37-13.99c-0.54-0.67-1.09-1.34-1.63-2.01
					c-1.06-1.3-3.43-1.18-4.51,0c-1.27,1.38-1.13,3.12,0,4.51c3.79,4.66,7.58,9.33,11.37,13.99c0.54,0.67,1.09,1.34,1.63,2.01
					c1.06,1.3,3.43,1.18,4.51,0C803.52,559.87,803.38,558.13,802.25,556.75L802.25,556.75z"/>
			</g>
		</g>
		<g>
			<g>
				<path class="st3" d="M797.75,524.75c-3.79,4.66-7.58,9.33-11.37,13.99c-0.54,0.67-1.09,1.34-1.63,2.01
					c-1.05,1.29-1.36,3.26,0,4.51c1.16,1.07,3.39,1.38,4.51,0c3.79-4.66,7.58-9.33,11.37-13.99c0.54-0.67,1.09-1.34,1.63-2.01
					c1.05-1.29,1.36-3.26,0-4.51C801.09,523.68,798.87,523.36,797.75,524.75L797.75,524.75z"/>
			</g>
		</g>
	</g>
</g>
<g id="printer">
	<g>
		<g>
			<path d="M1235,30.01c-2.02,0-4.05,0-6.07,0c-5.46,0-10.92,0-16.38,0c-7.95,0-15.9,0-23.85,0c-9.6,0-19.19,0-28.79,0
				c-10.3,0-20.6,0-30.91,0c-10.06,0-20.12,0-30.18,0c-8.99,0-17.97,0-26.96,0c-6.96,0-13.93,0-20.89,0c-4.02,0-8.04,0-12.05,0
				c-0.64,0-1.27-0.01-1.91,0c-7.48,0.1-13.52,6.14-13.63,13.62c-0.03,2,0,4,0,6c0,5.29,0,10.57,0,15.86c0,7.72,0,15.43,0,23.15
				c0,9.4,0,18.79,0,28.19c0,10.23,0,20.45,0,30.68c0,10.24,0,20.48,0,30.72c0,9.4,0,18.8,0,28.2c0,7.82,0,15.64,0,23.45
				c0,5.38,0,10.75,0,16.13c0,2.12-0.03,4.23,0,6.35c0.11,7.47,6.13,13.53,13.62,13.63c0.56,0.01,1.12,0,1.69,0
				c3.92,0,7.83,0,11.75,0c6.85,0,13.7,0,20.55,0c8.93,0,17.86,0,26.79,0c10.08,0,20.15,0,30.23,0c10.27,0,20.54,0,30.81,0
				c9.64,0,19.27,0,28.91,0c8.05,0,16.1,0,24.16,0c5.54,0,11.08,0,16.62,0c2.16,0,4.33,0.03,6.49,0
				c7.47-0.11,13.52-6.15,13.62-13.62c0.01-0.57,0-1.14,0-1.72c0-3.8,0-7.61,0-11.41c0-6.63,0-13.27,0-19.9c0-8.7,0-17.4,0-26.1
				c0-9.93,0-19.86,0-29.79c0-10.34,0-20.67,0-31.01c0-9.89,0-19.77,0-29.66c0-8.7,0-17.4,0-26.1c0-6.66,0-13.31,0-19.97
				c0-3.78,0-7.56,0-11.35c0-0.57,0.01-1.14,0-1.71C1248.51,36.16,1242.47,30.14,1235,30.01c-1.95-0.03-3.61,1.69-3.61,3.61
				c0,1.99,1.65,3.58,3.61,3.61c0.18,0,1.44,0.15,0.76,0.02c0.39,0.07,0.77,0.16,1.15,0.27c0.2,0.06,1.09,0.45,0.53,0.17
				c0.45,0.22,0.87,0.46,1.29,0.73c0.08,0.05,0.62,0.47,0.29,0.2c-0.3-0.24,0.11,0.11,0.14,0.14c0.3,0.32,0.62,0.61,0.91,0.94
				c-0.42-0.48,0.2,0.29,0.3,0.46c0.12,0.19,0.22,0.38,0.33,0.57c0.07,0.11,0.38,0.8,0.12,0.19c0.15,0.36,0.26,0.73,0.36,1.11
				c0.05,0.2,0.22,1.19,0.15,0.54c0.04,0.35,0.05,0.7,0.05,1.05c0,0.05,0,0.11,0,0.16c0,0.8,0,1.59,0,2.39c0,4.15,0,8.29,0,12.44
				c0,6.84,0,13.68,0,20.52c0,8.79,0,17.58,0,26.37c0,9.88,0,19.76,0,29.64c0,10.21,0,20.42,0,30.63c0,9.79,0,19.58,0,29.37
				c0,8.5,0,16.99,0,25.49c0,6.47,0,12.95,0,19.42c0,3.61,0,7.22,0,10.83c0,0.49,0.01,0.99,0,1.48c-0.01,0.35-0.02,0.69-0.05,1.04
				c0.07-0.7-0.14,0.54-0.19,0.7c-0.06,0.21-0.13,0.42-0.2,0.64c-0.01,0.04-0.23,0.53-0.07,0.18c0.18-0.39-0.13,0.23-0.17,0.31
				c-0.14,0.24-0.27,0.48-0.42,0.71c-0.12,0.18-0.24,0.37-0.37,0.54c0.04-0.05,0.32-0.39,0.05-0.1c-0.26,0.28-0.54,0.54-0.8,0.82
				c-0.44,0.46-0.17,0.17-0.03,0.06c-0.17,0.13-0.36,0.26-0.54,0.37c-0.37,0.24-0.76,0.45-1.15,0.64c0.56-0.28-0.46,0.15-0.69,0.22
				c-0.22,0.06-0.44,0.11-0.65,0.16c-0.04,0.01-0.59,0.1-0.19,0.05c0.34-0.05-0.78,0.03-0.91,0.04c-0.05,0-0.11,0-0.16,0
				c-2.58,0.02-5.17,0-7.75,0c-5.84,0-11.67,0-17.51,0c-8.16,0-16.32,0-24.47,0c-9.66,0-19.32,0-28.98,0c-10.2,0-20.4,0-30.61,0
				c-9.9,0-19.8,0-29.71,0c-8.75,0-17.51,0-26.26,0c-6.65,0-13.31,0-19.96,0c-3.71,0-7.43,0-11.14,0c-0.71,0-1.42,0-2.14-0.02
				c-0.72-0.02-0.23-0.03-0.06,0c-0.22-0.04-0.44-0.09-0.66-0.14c-0.38-0.09-0.75-0.21-1.12-0.35c-0.53-0.2,0.45,0.24-0.05-0.03
				c-0.19-0.11-0.39-0.2-0.58-0.31c-0.14-0.08-0.28-0.17-0.42-0.26c0.01,0-0.74-0.55-0.43-0.3c0.17,0.14-0.57-0.57-0.72-0.71
				c-0.12-0.11-0.22-0.24-0.33-0.37c0.4,0.45,0.04,0.07-0.03-0.05c-0.24-0.37-0.45-0.75-0.68-1.13c-0.02-0.03-0.25-0.52-0.1-0.17
				c0.18,0.4-0.15-0.42-0.17-0.5c-0.14-0.43-0.24-0.87-0.32-1.31c0.12,0.64-0.01-0.37-0.02-0.58c0-0.07,0-0.13,0-0.2
				c0-0.06,0-0.12,0-0.19c-0.01-2.54,0-5.09,0-7.63c0-5.63,0-11.26,0-16.89c0-7.96,0-15.92,0-23.88c0-9.44,0-18.87,0-28.31
				c0-10.19,0-20.38,0-30.57c0-10.07,0-20.14,0-30.21c0-9.2,0-18.4,0-27.6c0-7.54,0-15.08,0-22.62c0-5.1,0-10.21,0-15.31
				c0-2-0.09-4.03,0.02-6.03c0.01-0.1,0.09-0.81,0.02-0.38c-0.06,0.44,0.06-0.26,0.08-0.36c0.09-0.38,0.21-0.75,0.33-1.13
				c0.04-0.13,0.29-0.61,0.02-0.06c0.1-0.2,0.19-0.39,0.3-0.59c0.21-0.38,0.45-0.76,0.71-1.1c-0.43,0.55,0.41-0.39,0.51-0.5
				c0.12-0.11,0.24-0.22,0.36-0.33c0.4-0.39-0.42,0.28,0.04-0.05c0.31-0.22,0.63-0.43,0.97-0.62c0.19-0.11,0.39-0.21,0.59-0.3
				c-0.46,0.23-0.04,0.01,0.21-0.07c0.37-0.12,0.75-0.21,1.13-0.31c0.65-0.18,0.23-0.05,0.05-0.03c0.23-0.03,0.46-0.04,0.69-0.05
				c0.12,0,0.25,0,0.37-0.01c0.06,0,0.12,0,0.18,0c0.88,0,1.75,0,2.63,0c4.37,0,8.74,0,13.11,0c7.14,0,14.27,0,21.41,0
				c9.06,0,18.12,0,27.18,0c10.03,0,20.06,0,30.1,0c10.2,0,20.4,0,30.59,0c9.4,0,18.8,0,28.19,0c7.76,0,15.52,0,23.29,0
				c5.25,0,10.49,0,15.74,0c1.85,0,3.71,0,5.56,0c1.95,0,3.61-1.66,3.61-3.61C1238.61,31.67,1236.96,30.01,1235,30.01z"/>
		</g>
	</g>
	<g>
		<g>
			<path d="M1053.5,217.24c5.43,0,10.86,0,16.29,0c13.04,0,26.07,0,39.11,0c15.89,0,31.78,0,47.68,0c13.87,0,27.74,0,41.6,0
				c7.09,0,14.19,0,21.28,0c2.21,0,4.33-0.4,6.35-1.32c4.79-2.17,7.76-7.15,7.83-12.35c0.03-1.96,0-3.92,0-5.88
				c0-11.21,0-22.41,0-33.62c0-15.67,0-31.34,0-47.01c0-13.82,0-27.64,0-41.47c0-4.23,0-8.46,0-12.69c0-2.43,0.16-4.95-0.34-7.34
				c-1.3-6.18-7.08-10.51-13.27-10.6c-0.4-0.01-0.8,0-1.21,0c-2.84,0-5.69,0-8.53,0c-11.64,0-23.28,0-34.92,0
				c-15.61,0-31.22,0-46.83,0c-14.79,0-29.58,0-44.38,0c-9.18,0-18.37,0-27.55,0c-3.2,0-6.17-0.01-9.19,1.45
				c-4.64,2.25-7.47,7.14-7.53,12.23c-0.01,0.61,0,1.23,0,1.84c0,9.16,0,18.33,0,27.49c0,15.16,0,30.33,0,45.49
				c0,14.85,0,29.71,0,44.56c0,8.23,0,16.46,0,24.69c0,1.2,0.06,2.37,0.28,3.57C1041.34,212.65,1047.18,217.13,1053.5,217.24
				c1.95,0.03,3.61-1.69,3.61-3.61c0-1.99-1.65-3.58-3.61-3.61c-0.35-0.01-0.69-0.02-1.04-0.05c0.79,0.09-0.29-0.08-0.38-0.1
				c-0.33-0.08-0.64-0.19-0.96-0.29c-0.93-0.3,0.48,0.34-0.35-0.16c-0.28-0.17-0.58-0.32-0.85-0.5c-0.08-0.05-0.88-0.71-0.32-0.22
				c-0.16-0.14-0.33-0.29-0.48-0.44c-0.1-0.09-0.96-1.08-0.51-0.5c-0.4-0.52-0.73-1.1-1.02-1.69c0.33,0.68-0.1-0.28-0.12-0.37
				c-0.1-0.32-0.17-0.65-0.26-0.97c-0.27-0.97-0.02,0.63-0.06-0.39c-0.01-0.23-0.02-0.46-0.02-0.7c0-0.01,0-0.02,0-0.03
				c-0.01-0.54,0-1.09,0-1.63c0-3.25,0-6.51,0-9.76c0-12.62,0-25.24,0-37.86c0-15.61,0-31.22,0-46.82c0-12.55,0-25.1,0-37.65
				c0-3.24,0-6.47,0-9.71c0-0.52-0.01-1.04,0-1.55c0-0.01,0-0.01,0-0.02c0.01-0.35,0.02-0.69,0.05-1.04
				c-0.09,0.79,0.08-0.29,0.1-0.38c0.05-0.22,0.11-0.43,0.18-0.65c0.03-0.09,0.46-1.05,0.12-0.37c0.15-0.3,0.3-0.59,0.47-0.87
				c0.08-0.14,0.86-1.13,0.39-0.6c0.22-0.25,0.44-0.49,0.67-0.72c0.05-0.05,0.87-0.75,0.27-0.28c0.44-0.34,0.92-0.59,1.39-0.87
				c0.83-0.5-0.58,0.13,0.35-0.16c0.32-0.1,0.63-0.21,0.96-0.29c0.09-0.02,1.17-0.19,0.38-0.1c0.35-0.04,0.69-0.05,1.04-0.05
				c5.32-0.08,10.66,0,15.98,0c12.78,0,25.57,0,38.35,0c15.68,0,31.36,0,47.03,0c13.9,0,27.81,0,41.71,0c7.47,0,14.95,0,22.42,0
				c0.58,0,1.15,0.01,1.72,0.02c1.01,0.02-0.56-0.2,0.39,0.06c0.32,0.09,0.65,0.15,0.97,0.26c0.21,0.07,0.42,0.14,0.63,0.22
				c-0.71-0.29,0.26,0.16,0.33,0.2c1.15,0.64,1.72,1.21,2.26,2.03c0.18,0.28,0.32,0.57,0.5,0.85c0.34,0.55,0.12,0.21,0.05,0.04
				c0.26,0.62,0.43,1.28,0.55,1.94c-0.13-0.7,0.02,0.58,0.02,0.8c0.03,1.89,0,3.78,0,5.66c0,10.98,0,21.95,0,32.93
				c0,15.4,0,30.79,0,46.19c0,13.88,0,27.77,0,41.65c0,6.18,0.09,12.37,0,18.54c0,0.12,0,0.2-0.01,0.36c0,0.09-0.16,1.19-0.01,0.41
				c-0.06,0.33-0.13,0.66-0.23,0.99c-0.09,0.32-0.19,0.64-0.32,0.95c0.3-0.71-0.16,0.26-0.2,0.33c-0.16,0.29-0.34,0.56-0.52,0.84
				c-0.5,0.76,0.41-0.33-0.25,0.29c-0.23,0.22-0.47,0.46-0.69,0.69c-0.67,0.7,0.52-0.28-0.29,0.25c-0.28,0.18-0.55,0.36-0.84,0.52
				c-0.07,0.04-1.04,0.5-0.33,0.2c-0.62,0.26-1.28,0.43-1.94,0.55c0.69-0.12-0.57,0.02-0.76,0.02c-0.4,0.01-0.8,0-1.21,0
				c-2.76,0-5.52,0-8.28,0c-11.43,0-22.85,0-34.28,0c-15.41,0-30.82,0-46.23,0c-14.69,0-29.38,0-44.06,0c-9.5,0-19,0-28.49,0
				c-1.32,0-2.65,0-3.97,0c-1.95,0-3.61,1.66-3.61,3.61C1049.89,215.59,1051.54,217.24,1053.5,217.24z"/>
		</g>
	</g>
	<g>
		<g>
			<path d="M1179.37,105.62c-10.07,0-20.15,0-30.22,0c-1.44,0-2.88,0-4.32,0c1.2,1.2,2.41,2.41,3.61,3.61c0-9.84,0-19.69,0-29.53
				c0-1.41,0-2.83,0-4.24c-1.2,1.2-2.41,2.41-3.61,3.61c10.07,0,20.15,0,30.22,0c1.44,0,2.88,0,4.32,0c-1.2-1.2-2.41-2.41-3.61-3.61
				c0,9.84,0,19.69,0,29.53c0,1.41,0,2.83,0,4.24c0,1.95,1.66,3.61,3.61,3.61c1.96,0,3.61-1.65,3.61-3.61c0-9.84,0-19.69,0-29.53
				c0-1.41,0-2.83,0-4.24c0-1.95-1.66-3.61-3.61-3.61c-10.07,0-20.15,0-30.22,0c-1.44,0-2.88,0-4.32,0c-1.95,0-3.61,1.66-3.61,3.61
				c0,9.84,0,19.69,0,29.53c0,1.41,0,2.83,0,4.24c0,1.95,1.66,3.61,3.61,3.61c10.07,0,20.15,0,30.22,0c1.44,0,2.88,0,4.32,0
				c1.95,0,3.61-1.66,3.61-3.61C1182.98,107.28,1181.33,105.62,1179.37,105.62z"/>
		</g>
	</g>
	<g>
		<g>
			<path d="M1043.5,89.82c3.38,0,6.75,0,10.12,0c8.06,0,16.12,0,24.18,0c9.74,0,19.49,0,29.23,0c8.43,0,16.85,0,25.28,0
				c4.1,0,8.23,0.13,12.33,0c0.06,0,0.12,0,0.18,0c1.95,0,3.61-1.66,3.61-3.61c0-1.96-1.65-3.61-3.61-3.61c-3.38,0-6.75,0-10.13,0
				c-8.06,0-16.12,0-24.18,0c-9.74,0-19.49,0-29.23,0c-8.43,0-16.85,0-25.28,0c-4.1,0-8.23-0.13-12.33,0c-0.06,0-0.12,0-0.18,0
				c-1.95,0-3.61,1.66-3.61,3.61C1039.89,88.17,1041.54,89.82,1043.5,89.82L1043.5,89.82z"/>
		</g>
	</g>
	<g>
		<g>
			<path d="M1230.03,82.59c-5.68,0-11.35,0-17.03,0c-9,0-18.01,0-27.01,0c-2.08,0-4.16,0-6.24,0c-1.95,0-3.61,1.66-3.61,3.61
				c0,1.96,1.65,3.61,3.61,3.61c5.68,0,11.35,0,17.03,0c9,0,18.01,0,27.01,0c2.08,0,4.16,0,6.24,0c1.95,0,3.61-1.66,3.61-3.61
				C1233.65,84.25,1231.99,82.59,1230.03,82.59L1230.03,82.59z"/>
		</g>
	</g>
	<g>
		<g>
			<path d="M1055.24,86.21c0,2.91,0,5.83,0,8.74c0,0.41,0,0.82,0,1.24c0,1.89,1.66,3.7,3.61,3.61c1.96-0.09,3.61-1.59,3.61-3.61
				c0-2.91,0-5.83,0-8.74c0-0.41,0-0.82,0-1.24c0-1.89-1.66-3.7-3.61-3.61C1056.9,82.68,1055.24,84.18,1055.24,86.21L1055.24,86.21z
				"/>
		</g>
	</g>
	<g>
		<g>
			<path d="M1068.29,86.59c0,2.91,0,5.83,0,8.74c0,0.41,0,0.82,0,1.24c0,1.89,1.66,3.7,3.61,3.61c1.96-0.09,3.61-1.59,3.61-3.61
				c0-2.91,0-5.83,0-8.74c0-0.41,0-0.82,0-1.24c0-1.89-1.66-3.7-3.61-3.61C1069.95,83.07,1068.29,84.57,1068.29,86.59L1068.29,86.59
				z"/>
		</g>
	</g>
	<g>
		<g>
			<path d="M1082.11,86.21c0,2.91,0,5.83,0,8.74c0,0.41,0,0.82,0,1.24c0,1.89,1.66,3.7,3.61,3.61c1.96-0.09,3.61-1.59,3.61-3.61
				c0-2.91,0-5.83,0-8.74c0-0.41,0-0.82,0-1.24c0-1.89-1.66-3.7-3.61-3.61C1083.76,82.68,1082.11,84.18,1082.11,86.21L1082.11,86.21
				z"/>
		</g>
	</g>
	<g>
		<g>
			<path d="M1095.16,86.59c0,2.91,0,5.83,0,8.74c0,0.41,0,0.82,0,1.24c0,1.89,1.66,3.7,3.61,3.61c1.96-0.09,3.61-1.59,3.61-3.61
				c0-2.91,0-5.83,0-8.74c0-0.41,0-0.82,0-1.24c0-1.89-1.66-3.7-3.61-3.61C1096.81,83.07,1095.16,84.57,1095.16,86.59L1095.16,86.59
				z"/>
		</g>
	</g>
	<g>
		<g>
			<path d="M1199.55,86.59c0,2.91,0,5.83,0,8.74c0,0.41,0,0.82,0,1.24c0,1.89,1.66,3.7,3.61,3.61c1.96-0.09,3.61-1.59,3.61-3.61
				c0-2.91,0-5.83,0-8.74c0-0.41,0-0.82,0-1.24c0-1.89-1.66-3.7-3.61-3.61C1201.21,83.07,1199.55,84.57,1199.55,86.59L1199.55,86.59
				z"/>
		</g>
	</g>
	<g>
		<g>
			<path d="M1213.37,86.59c0,2.91,0,5.83,0,8.74c0,0.41,0,0.82,0,1.24c0,1.89,1.66,3.7,3.61,3.61c1.96-0.09,3.61-1.59,3.61-3.61
				c0-2.91,0-5.83,0-8.74c0-0.41,0-0.82,0-1.24c0-1.89-1.66-3.7-3.61-3.61C1215.02,83.07,1213.37,84.57,1213.37,86.59L1213.37,86.59
				z"/>
		</g>
	</g>
	<g>
		<g>
			<path d="M1092.63,245.33c-5.53,0-11.05,0-16.58,0c-8.82,0-17.63,0-26.45,0c-2.03,0-4.07,0-6.1,0c1.2,1.2,2.41,2.41,3.61,3.61
				c0-6.95,0-13.89,0-20.84c0-0.99,0-1.97,0-2.96c-1.2,1.2-2.41,2.41-3.61,3.61c5.53,0,11.05,0,16.58,0c8.82,0,17.63,0,26.45,0
				c2.03,0,4.07,0,6.1,0c-1.2-1.2-2.41-2.41-3.61-3.61c0,6.95,0,13.89,0,20.84c0,0.99,0,1.97,0,2.96c0,1.95,1.66,3.61,3.61,3.61
				c1.96,0,3.61-1.65,3.61-3.61c0-6.95,0-13.89,0-20.84c0-0.99,0-1.97,0-2.96c0-1.95-1.66-3.61-3.61-3.61c-5.53,0-11.05,0-16.58,0
				c-8.82,0-17.63,0-26.45,0c-2.03,0-4.07,0-6.1,0c-1.95,0-3.61,1.66-3.61,3.61c0,6.95,0,13.89,0,20.84c0,0.99,0,1.97,0,2.96
				c0,1.95,1.66,3.61,3.61,3.61c5.53,0,11.05,0,16.58,0c8.82,0,17.63,0,26.45,0c2.03,0,4.07,0,6.1,0c1.95,0,3.61-1.66,3.61-3.61
				C1096.24,246.98,1094.59,245.33,1092.63,245.33z"/>
		</g>
	</g>
	<g>
		<g>
			<path d="M1181.67,221.53c-3.43,0-6.87,0-10.3,0c-1.41,0-2.82-0.04-4.22,0c-3.81,0.1-7.45,2.71-8.11,6.61
				c-0.71,4.23,1.78,8.61,6.12,9.6c1.51,0.34,3.13,0.23,4.67,0.23c3.86,0,7.71,0.03,11.57,0c3.86-0.03,7.5-2.53,8.29-6.45
				C1190.73,226.35,1186.88,221.71,1181.67,221.53c-1.89-0.07-3.7,1.71-3.61,3.61c0.09,2.02,1.59,3.54,3.61,3.61
				c0.11,0,0.22,0.01,0.33,0.01c-0.43-0.06-0.43-0.05-0.02,0.04c0.1,0.03,0.2,0.07,0.3,0.1c-0.38-0.16-0.39-0.15-0.03,0.04
				c0.09,0.06,0.17,0.11,0.26,0.17c-0.33-0.25-0.34-0.23-0.04,0.04c-0.06-0.08-0.12-0.17-0.17-0.25c0.12,0.17,0.23,0.34,0.32,0.53
				c-0.38-0.64,0.01,0.11,0.06,0.31c-0.07-0.27-0.03-0.6-0.03,0c0,0.11-0.01,0.22-0.01,0.33c0.06-0.43,0.05-0.43-0.04-0.02
				c-0.13,0.4-0.13,0.4,0.01,0c-0.1,0.18-0.2,0.36-0.32,0.53c0.58-0.77-0.56,0.37,0.21-0.21c-0.12,0.09-0.98,0.49-0.23,0.21
				c-0.16,0.06-1.08,0.19-0.28,0.14c0.09-0.01-0.24,0.01-0.35,0.01c-0.34-0.01-0.68,0-1.02,0c-3.44,0-6.88,0-10.32,0
				c-1.06,0-2.12-0.03-3.18,0c-0.02,0-0.03,0-0.05,0c-0.11,0-0.22-0.01-0.33-0.01c0.43,0.06,0.43,0.05,0.02-0.04
				c-0.1-0.03-0.2-0.07-0.3-0.1c0.38,0.16,0.39,0.15,0.03-0.04c-0.09-0.06-0.17-0.11-0.26-0.17c0.33,0.25,0.34,0.23,0.04-0.04
				c0.06,0.08,0.12,0.17,0.17,0.25c-0.12-0.17-0.23-0.34-0.33-0.53c0.38,0.64-0.01-0.11-0.06-0.31c0.07,0.27,0.03,0.6,0.03,0
				c0.02-0.44,0.02-0.44-0.03,0c0.04-0.21,0.1-0.41,0.18-0.61c-0.28,0.74,0.12-0.11,0.21-0.23c-0.58,0.77,0.56-0.37-0.21,0.21
				c0.12-0.09,0.98-0.49,0.23-0.21c0.16-0.06,1.08-0.19,0.28-0.14c0.3-0.02,0.6-0.01,0.9-0.01c1.46,0,2.92,0,4.38,0
				c3.21,0,6.42,0,9.63,0c1.89,0,3.7-1.66,3.61-3.61C1185.2,223.19,1183.7,221.53,1181.67,221.53z"/>
		</g>
	</g>
	<g>
		<g>
			<path d="M1215.45,221.53c-3.43,0-6.87,0-10.3,0c-1.41,0-2.82-0.04-4.22,0c-3.81,0.1-7.45,2.71-8.11,6.61
				c-0.71,4.23,1.78,8.61,6.12,9.6c1.51,0.34,3.13,0.23,4.67,0.23c3.86,0,7.71,0.03,11.57,0c3.86-0.03,7.5-2.53,8.29-6.45
				C1224.51,226.35,1220.65,221.71,1215.45,221.53c-1.89-0.07-3.7,1.71-3.61,3.61c0.09,2.02,1.59,3.54,3.61,3.61
				c0.11,0,0.22,0.01,0.33,0.01c-0.43-0.06-0.43-0.05-0.02,0.04c0.1,0.03,0.2,0.07,0.3,0.1c-0.38-0.16-0.39-0.15-0.03,0.04
				c0.09,0.06,0.17,0.11,0.26,0.17c-0.33-0.25-0.34-0.23-0.04,0.04c-0.06-0.08-0.12-0.17-0.17-0.25c0.12,0.17,0.23,0.34,0.32,0.53
				c-0.38-0.64,0.01,0.11,0.06,0.31c-0.07-0.27-0.03-0.6-0.03,0c0,0.11-0.01,0.22-0.01,0.33c0.06-0.43,0.05-0.43-0.04-0.02
				c-0.13,0.4-0.13,0.4,0.01,0c-0.1,0.18-0.2,0.36-0.32,0.53c0.58-0.77-0.56,0.37,0.21-0.21c-0.12,0.09-0.98,0.49-0.23,0.21
				c-0.16,0.06-1.08,0.19-0.28,0.14c0.09-0.01-0.24,0.01-0.35,0.01c-0.34-0.01-0.68,0-1.02,0c-3.44,0-6.88,0-10.32,0
				c-1.06,0-2.12-0.03-3.18,0c-0.02,0-0.03,0-0.05,0c-0.11,0-0.22-0.01-0.33-0.01c0.43,0.06,0.43,0.05,0.02-0.04
				c-0.1-0.03-0.2-0.07-0.3-0.1c0.38,0.16,0.39,0.15,0.03-0.04c-0.09-0.06-0.17-0.11-0.26-0.17c0.33,0.25,0.34,0.23,0.04-0.04
				c0.06,0.08,0.12,0.17,0.17,0.25c-0.12-0.17-0.23-0.34-0.33-0.53c0.38,0.64-0.01-0.11-0.06-0.31c0.07,0.27,0.03,0.6,0.03,0
				c0.02-0.44,0.02-0.44-0.03,0c0.04-0.21,0.1-0.41,0.18-0.61c-0.28,0.74,0.12-0.11,0.21-0.23c-0.58,0.77,0.56-0.37-0.21,0.21
				c0.12-0.09,0.98-0.49,0.23-0.21c0.16-0.06,1.08-0.19,0.28-0.14c0.3-0.02,0.6-0.01,0.9-0.01c1.46,0,2.92,0,4.38,0
				c3.21,0,6.42,0,9.63,0c1.89,0,3.7-1.66,3.61-3.61C1218.97,223.19,1217.47,221.53,1215.45,221.53z"/>
		</g>
	</g>
	<g>
		<g>
			<path d="M1181.67,237.65c-3.43,0-6.87,0-10.3,0c-1.41,0-2.82-0.04-4.22,0c-3.81,0.1-7.45,2.71-8.11,6.61
				c-0.71,4.23,1.78,8.61,6.12,9.6c1.51,0.34,3.13,0.23,4.67,0.23c3.86,0,7.71,0.03,11.57,0c3.86-0.03,7.5-2.53,8.29-6.45
				C1190.73,242.47,1186.88,237.83,1181.67,237.65c-1.89-0.07-3.7,1.71-3.61,3.61c0.09,2.02,1.59,3.54,3.61,3.61
				c0.11,0,0.22,0.01,0.33,0.01c-0.43-0.06-0.43-0.05-0.02,0.04c0.1,0.03,0.2,0.07,0.3,0.1c-0.38-0.16-0.39-0.15-0.03,0.04
				c0.09,0.06,0.17,0.11,0.26,0.17c-0.33-0.25-0.34-0.23-0.04,0.04c-0.06-0.08-0.12-0.17-0.17-0.25c0.12,0.17,0.23,0.34,0.32,0.53
				c-0.38-0.64,0.01,0.11,0.06,0.31c-0.07-0.27-0.03-0.6-0.03,0c0,0.11-0.01,0.22-0.01,0.33c0.06-0.43,0.05-0.43-0.04-0.02
				c-0.13,0.4-0.13,0.4,0.01,0c-0.1,0.18-0.2,0.36-0.32,0.53c0.58-0.77-0.56,0.37,0.21-0.21c-0.12,0.09-0.98,0.49-0.23,0.21
				c-0.16,0.06-1.08,0.19-0.28,0.14c0.09-0.01-0.24,0.01-0.35,0.01c-0.34-0.01-0.68,0-1.02,0c-3.44,0-6.88,0-10.32,0
				c-1.06,0-2.12-0.03-3.18,0c-0.02,0-0.03,0-0.05,0c-0.11,0-0.22-0.01-0.33-0.01c0.43,0.06,0.43,0.05,0.02-0.04
				c-0.1-0.03-0.2-0.07-0.3-0.1c0.38,0.16,0.39,0.15,0.03-0.04c-0.09-0.06-0.17-0.11-0.26-0.17c0.33,0.25,0.34,0.23,0.04-0.04
				c0.06,0.08,0.12,0.17,0.17,0.25c-0.12-0.17-0.23-0.34-0.33-0.53c0.38,0.64-0.01-0.11-0.06-0.31c0.07,0.27,0.03,0.6,0.03,0
				c0.02-0.44,0.02-0.44-0.03,0c0.04-0.21,0.1-0.41,0.18-0.61c-0.28,0.74,0.12-0.11,0.21-0.23c-0.58,0.77,0.56-0.37-0.21,0.21
				c0.12-0.09,0.98-0.49,0.23-0.21c0.16-0.06,1.08-0.19,0.28-0.14c0.3-0.02,0.6-0.01,0.9-0.01c1.46,0,2.92,0,4.38,0
				c3.21,0,6.42,0,9.63,0c1.89,0,3.7-1.66,3.61-3.61C1185.2,239.31,1183.7,237.65,1181.67,237.65z"/>
		</g>
	</g>
	<g>
		<g>
			<path d="M1215.45,237.65c-3.43,0-6.87,0-10.3,0c-1.41,0-2.82-0.04-4.22,0c-3.81,0.1-7.45,2.71-8.11,6.61
				c-0.71,4.23,1.78,8.61,6.12,9.6c1.51,0.34,3.13,0.23,4.67,0.23c3.86,0,7.71,0.03,11.57,0c3.86-0.03,7.5-2.53,8.29-6.45
				C1224.51,242.47,1220.65,237.83,1215.45,237.65c-1.89-0.07-3.7,1.71-3.61,3.61c0.09,2.02,1.59,3.54,3.61,3.61
				c0.11,0,0.22,0.01,0.33,0.01c-0.43-0.06-0.43-0.05-0.02,0.04c0.1,0.03,0.2,0.07,0.3,0.1c-0.38-0.16-0.39-0.15-0.03,0.04
				c0.09,0.06,0.17,0.11,0.26,0.17c-0.33-0.25-0.34-0.23-0.04,0.04c-0.06-0.08-0.12-0.17-0.17-0.25c0.12,0.17,0.23,0.34,0.32,0.53
				c-0.38-0.64,0.01,0.11,0.06,0.31c-0.07-0.27-0.03-0.6-0.03,0c0,0.11-0.01,0.22-0.01,0.33c0.06-0.43,0.05-0.43-0.04-0.02
				c-0.13,0.4-0.13,0.4,0.01,0c-0.1,0.18-0.2,0.36-0.32,0.53c0.58-0.77-0.56,0.37,0.21-0.21c-0.12,0.09-0.98,0.49-0.23,0.21
				c-0.16,0.06-1.08,0.19-0.28,0.14c0.09-0.01-0.24,0.01-0.35,0.01c-0.34-0.01-0.68,0-1.02,0c-3.44,0-6.88,0-10.32,0
				c-1.06,0-2.12-0.03-3.18,0c-0.02,0-0.03,0-0.05,0c-0.11,0-0.22-0.01-0.33-0.01c0.43,0.06,0.43,0.05,0.02-0.04
				c-0.1-0.03-0.2-0.07-0.3-0.1c0.38,0.16,0.39,0.15,0.03-0.04c-0.09-0.06-0.17-0.11-0.26-0.17c0.33,0.25,0.34,0.23,0.04-0.04
				c0.06,0.08,0.12,0.17,0.17,0.25c-0.12-0.17-0.23-0.34-0.33-0.53c0.38,0.64-0.01-0.11-0.06-0.31c0.07,0.27,0.03,0.6,0.03,0
				c0.02-0.44,0.02-0.44-0.03,0c0.04-0.21,0.1-0.41,0.18-0.61c-0.28,0.74,0.12-0.11,0.21-0.23c-0.58,0.77,0.56-0.37-0.21,0.21
				c0.12-0.09,0.98-0.49,0.23-0.21c0.16-0.06,1.08-0.19,0.28-0.14c0.3-0.02,0.6-0.01,0.9-0.01c1.46,0,2.92,0,4.38,0
				c3.21,0,6.42,0,9.63,0c1.89,0,3.7-1.66,3.61-3.61C1218.97,239.31,1217.47,237.65,1215.45,237.65z"/>
		</g>
	</g>
	<g>
		<g>
			<path d="M1159.25,141.09c-0.04,0.66,0.18-0.96,0.08-0.57c-0.08,0.29-0.11,0.6-0.2,0.89c-0.05,0.17-0.11,0.34-0.16,0.51
				c-0.23,0.79,0.41-0.73,0.04-0.08c-0.13,0.22-0.23,0.46-0.36,0.68c-0.09,0.16-0.65,0.87-0.25,0.4c0.43-0.51-0.27,0.27-0.39,0.39
				c-0.32,0.31-0.72,0.54-0.11,0.14c-0.3,0.19-0.59,0.4-0.91,0.57c-0.15,0.08-0.31,0.14-0.45,0.23c-0.34,0.2,0.64-0.19-0.01-0.01
				c-0.43,0.12-0.85,0.25-1.28,0.35c-0.18,0.04-0.88,0.15-0.16,0.06c-0.23,0.03-0.47,0.05-0.7,0.07c-0.51,0.04-1.02,0.04-1.53,0.04
				c-3.16,0.01-6.32,0-9.48,0c-11.38,0-22.76,0-34.15,0c-10.7,0-21.41,0-32.11,0c-2.31,0-4.62-0.03-6.92,0
				c-5.23,0.07-9.75,3.38-10.3,8.79c-0.41,4.09,1.16,8.76,5,10.72c1.69,0.86,3.54,1.15,5.42,1.16c1.55,0,3.1,0,4.64,0
				c7.42,0,14.85,0,22.27,0c10.93,0,21.86,0,32.78,0c11.59,0,23.17,0,34.76,0c9.52,0,19.04,0,28.56,0c4.69,0,9.39-0.06,14.08,0
				c0.11,0,0.21,0,0.32,0c0.02,0,0.03,0,0.05,0c0.05,0,0.11,0.01,0.16,0.01c0.63,0-0.21,0.01-0.46-0.07
				c0.36,0.11,2.69,0.35,2.72,0.71c0.01,0.1-0.8-0.4-0.32-0.13c0.12,0.07,0.25,0.12,0.37,0.18c0.28,0.15,0.55,0.32,0.82,0.48
				c0.66,0.39-0.49-0.52,0.23,0.17c0.28,0.27,0.53,0.54,0.79,0.83c-0.52-0.6-0.08-0.07,0.1,0.27c0.08,0.15,0.15,0.3,0.22,0.45
				c-0.37-0.71-0.13-0.34-0.08-0.13c0.05,0.21,0.3,1.31,0.24,0.91c-0.07-0.5,0.01,0.17,0.01,0.29c0.01,0.35,0.02,0.71,0,1.06
				c0,0.09-0.07,0.85-0.02,0.4c0.05-0.43-0.05,0.24-0.07,0.34c-0.07,0.28-0.54,1.43-0.14,0.68c-0.16,0.31-0.38,0.61-0.52,0.92
				c0.26-0.57,0.32-0.34,0.1-0.14c-0.17,0.16-0.36,0.34-0.51,0.51c-0.36,0.43,0.05-0.05,0.18-0.12c-0.13,0.08-0.25,0.18-0.39,0.26
				c-0.12,0.07-1.12,0.6-0.59,0.34c0.53-0.25-0.45,0.15-0.63,0.2c-0.35,0.11-0.7,0.19-1.06,0.27c-0.27,0.06-0.55,0.11-0.82,0.15
				c-0.13,0.02-0.26,0.04-0.4,0.06c-0.59,0.11,0.37-0.07,0.39-0.05c-0.06-0.05-0.29,0.04-0.39,0.05c-3.92,0.03-7.85,0-11.77,0
				c-9.12,0-18.25,0-27.37,0c-11.49,0-22.98,0-34.46,0c-11.12,0-22.23,0-33.35,0c-8.01,0-16.01,0-24.02,0c-1.95,0-3.9,0-5.84,0
				c-0.31,0-0.61,0-0.92,0c-4.33,0.06-7.95,2.19-9.46,6.34c-1.37,3.77-0.89,8.64,2.22,11.41c1.96,1.75,4.57,2.61,7.17,2.7
				c2.03,0.07,4.08,0,6.12,0c11.52,0,23.04,0,34.57,0c5.58,0,11.17,0,16.75,0c1.87,0,3.74,0,5.61,0c0.63,0,1.25-0.01,1.88,0
				c0.27,0,1.39,0.13,0.46-0.03c0.35,0.06,0.69,0.13,1.03,0.22c0.19,0.06,0.4,0.16,0.59,0.2c0.45,0.09-0.54-0.36-0.2-0.08
				c0.24,0.2,0.71,0.46,1,0.59c0.4,0.19-0.48-0.49-0.19-0.15c0.11,0.14,0.29,0.25,0.41,0.38c0.21,0.2,0.38,0.47,0.6,0.65
				c-0.67-0.57-0.14-0.19,0.08,0.16c0.18,0.27,0.34,0.56,0.5,0.85c0.08,0.14,0.46,0.73,0.42,0.88c0,0.01-0.31-0.89-0.12-0.27
				c0.04,0.13,0.1,0.26,0.14,0.39c0.19,0.54,0.35,1.09,0.48,1.64c0.12,0.5,0.21,1,0.3,1.5c0.15,0.86-0.07-0.74-0.02-0.19
				c0.02,0.2,0.04,0.4,0.06,0.6c0.03,0.38,0.06,0.77,0.06,1.15c0.01,1.95,1.66,3.61,3.61,3.61c1.96,0,3.62-1.65,3.61-3.61
				c-0.01-4.41-1.47-9.56-4.78-12.62c-2.49-2.3-5.52-3.1-8.84-3.1c-1.68,0-3.36,0-5.03,0c-11.67,0-23.34,0-35.01,0
				c-7.98,0-15.98,0.19-23.96,0c-0.24-0.01-0.55-0.1-0.77-0.05c0.4-0.08,1,0.19,0.28,0.02c-0.24-0.06-0.49-0.11-0.73-0.17
				c-0.09-0.03-0.79-0.2-0.79-0.27c-0.01-0.06,0.87,0.47,0.32,0.12c-0.14-0.09-0.3-0.16-0.45-0.25c-0.15-0.09-0.29-0.2-0.44-0.29
				c0.13,0.08,0.54,0.58,0.23,0.15c-0.07-0.09-0.24-0.25-0.31-0.32c-0.42-0.35,0.07,0.06,0.14,0.19c-0.01-0.02-0.2-0.38-0.25-0.41
				c-0.04-0.07-0.08-0.15-0.11-0.22c0.17,0.44,0.21,0.53,0.12,0.27c-0.04-0.25-0.23-1.37-0.19-0.58c-0.02-0.47-0.01-0.92,0-1.39
				c0-0.22,0.1-0.89-0.03-0.05c0.03-0.19,0.06-0.37,0.1-0.56c0.08-0.36,0.22-0.71,0.3-1.06c-0.13,0.63-0.19,0.36-0.05,0.12
				c0.13-0.22,0.29-0.46,0.4-0.68c-0.35,0.69,0.04,0.01,0.31-0.25c-0.75,0.72,0.66-0.29,0.27-0.12c-0.52,0.22,0.44-0.11,0.44-0.11
				c0.21-0.05,0.43-0.1,0.65-0.13c-0.63,0.09,0.32,0.02,0.5,0.02c0.07,0,0.15,0,0.22,0c0.51,0,1.01,0,1.52,0c5.96,0,11.93,0,17.89,0
				c10.2,0,20.4,0,30.59,0c11.71,0,23.42,0,35.13,0c10.37,0,20.75,0,31.12,0c6.32,0,12.63,0,18.95,0c1.54,0,2.88-0.04,4.43-0.28
				c3.38-0.53,6.64-2.13,8.43-5.16c2.16-3.63,2.14-8.97-0.23-12.51c-2.27-3.38-6.4-5.27-10.41-5.4c-1.32-0.04-2.66,0-3.98,0
				c-7.11,0-14.22,0-21.33,0c-10.79,0-21.58,0-32.37,0c-11.62,0-23.25,0-34.88,0c-9.73,0-19.47,0-29.2,0c-5.09,0-10.17,0-15.26,0
				c-0.47,0-0.93,0-1.4-0.03c0.63,0.04-0.06-0.01-0.23-0.05c-0.21-0.05-0.41-0.12-0.61-0.17c-0.51-0.14,0.47,0.28,0.04,0.02
				c-0.2-0.12-0.4-0.23-0.6-0.36c0.63,0.41-0.04-0.12-0.25-0.34c0.74,0.78-0.39-1.02-0.01-0.02c-0.13-0.35-0.24-0.7-0.33-1.06
				c-0.04-0.19-0.07-0.37-0.12-0.56c0.18,0.8,0.02,0.19,0-0.05c-0.03-0.46-0.02-0.92-0.03-1.38c-0.01-0.19,0.11-0.7-0.03,0.03
				c0.06-0.28,0.14-0.55,0.2-0.83c0.06-0.29,0.3-0.41-0.08,0.14c0.09-0.12,0.12-0.33,0.23-0.43c0.11-0.1,0.55-0.53-0.16,0.16
				c0.02-0.02,0.24-0.33,0.3-0.34c0.03-0.01,0.28-0.25,0.32-0.3c-0.54,0.6-0.43,0.28-0.13,0.11c0.15-0.09,1.13-0.69,0.56-0.35
				c-0.53,0.31,0.2-0.06,0.37-0.12c0.25-0.08,0.5-0.14,0.75-0.2c0.19-0.04,0.4-0.04,0.58-0.11c-1.03,0.35-0.77,0.06-0.31,0.06
				c0.39,0,0.78-0.01,1.18-0.01c7.94,0,15.87,0,23.81,0c12.22,0,24.45,0,36.67,0c4.89,0,9.79,0,14.68,0c3.56,0,7.34,0.3,10.84-0.36
				c5.14-0.97,9.31-5.26,9.62-10.55c0.11-1.95-1.74-3.61-3.61-3.61C1160.81,137.48,1159.37,139.14,1159.25,141.09L1159.25,141.09z"
				/>
		</g>
	</g>
	<g>
		<g>
			<path d="M1046.06,75.66c1.65-1.73,3.44-3.35,5.27-4.89c0.38-0.32,0.77-0.64,1.16-0.96c0.16-0.13,1.33-1.03,0.75-0.6
				c0.95-0.72,1.92-1.42,2.92-2.08c0.91-0.6,1.83-1.16,2.79-1.68c0.46-0.25,0.93-0.49,1.41-0.72c0.1-0.05,1.05-0.45,0.26-0.13
				c0.28-0.11,0.56-0.22,0.84-0.32c2.4-0.85,4.33-0.96,7-0.74c-0.08-0.01,1.26,0.13,0.67,0.06c0.27,0.03,0.54,0.08,0.81,0.13
				c0.66,0.11,1.32,0.25,1.98,0.4c1.39,0.32,2.75,0.73,4.1,1.19c1.1,0.38,2.19,0.79,3.27,1.22c0.48,0.19,0.95,0.39,1.42,0.59
				c-0.83-0.34,0.01,0.01,0.16,0.07c0.44,0.19,0.89,0.38,1.33,0.56c1.15,0.48,2.25,0.82,3.49,1.02c9.92,1.62,20.5,0.89,30.34-0.84
				c4.54-0.8,8.95-2.15,13.5-2.89c0.5-0.08,0.99-0.15,1.49-0.23c0.16-0.02,0.71-0.09-0.06,0.01c0.3-0.04,0.61-0.08,0.91-0.11
				c1.12-0.13,2.24-0.24,3.37-0.32c2.15-0.15,4.31-0.2,6.47-0.11c1.11,0.05,2.22,0.13,3.33,0.25c0.14,0.02,1.15,0.16,0.23,0.02
				c0.29,0.04,0.59,0.09,0.88,0.14c0.58,0.1,1.16,0.21,1.74,0.33c1.13,0.24,2.25,0.54,3.34,0.91c0.54,0.18,1.06,0.38,1.59,0.59
				c-0.11-0.04-0.69-0.32-0.09-0.04c0.29,0.14,0.59,0.27,0.88,0.41c0.94,0.47,1.85,1,2.71,1.6c0.13,0.09,0.86,0.65,0.14,0.08
				c0.21,0.17,0.42,0.34,0.63,0.52c0.41,0.36,0.81,0.73,1.19,1.12c0.39,0.4,0.73,0.82,1.09,1.24c-0.49-0.56-0.16-0.22-0.06-0.07
				c0.21,0.31,0.43,0.61,0.63,0.93c0.31,0.49,0.6,0.99,0.86,1.5c0.09,0.17,0.18,0.35,0.26,0.53c0.08,0.18,0.17,0.36,0.25,0.54
				c-0.17-0.4-0.18-0.41-0.02-0.02c0.71,1.82,2.43,3.08,4.45,2.52c1.73-0.48,3.24-2.62,2.52-4.45
				c-7.35-18.87-31.75-17.52-47.94-13.34c-5.87,1.51-11.02,2.22-16.99,2.55c-4.79,0.27-9.63,0.3-14.41-0.19
				c-0.4-0.04-0.81-0.07-1.21-0.14c1.19,0.22-0.23-0.04-0.51-0.09c-0.58-0.1-1.17-0.22-1.73-0.41c-0.25-0.08-0.48-0.18-0.72-0.28
				c-0.19-0.08-0.92-0.39-0.01,0c-0.16-0.07-0.32-0.14-0.48-0.2c-1.32-0.56-2.65-1.13-3.99-1.65c-5.64-2.19-11.68-3.57-17.73-2.65
				c-5.53,0.84-10.41,4.35-14.69,7.74c-2.42,1.92-4.77,3.99-6.91,6.23c-1.35,1.41-1.4,3.71,0,5.11
				C1042.31,77.02,1044.71,77.08,1046.06,75.66L1046.06,75.66z"/>
		</g>
	</g>
	<g>
		<g>
			<path d="M1175.97,107.03c-2.6,3.71-5.19,7.42-7.79,11.13c-0.97,1.39-2.08,2.75-2.95,4.21c-0.61,1.03-0.5,2.22-0.53,3.36
				c-0.04,1.54-0.12,3.08-0.27,4.61c-0.02,0.2-0.16,1.4-0.09,0.89c0.08-0.6-0.04,0.26-0.05,0.31c-0.03,0.17-0.06,0.34-0.09,0.51
				c-0.06,0.32-0.12,0.63-0.2,0.95c-0.05,0.2-0.47,1.36-0.19,0.74c0.3-0.66-0.3,0.44-0.38,0.52c0.02-0.02-0.53,0.51-0.73,0.7
				c0.53-0.49-0.47,0.42-0.68,0.38c-0.03-0.01,0.87-0.28,0.3-0.15c-0.52,0.12,0.59-0.01,0.51-0.05c-0.36-0.18-1.32-0.01-1.73,0
				c-0.07,0-0.41-0.04-0.44,0c0.15-0.22,1.09,0.24,0.46,0.03c-0.13-0.04,0.72,0.45,0.07,0.01c-0.15-0.1-0.31-0.19-0.46-0.29
				c-0.42-0.28,0.51,0.61-0.15-0.15c-0.35-0.41-0.47-0.47-0.74-0.84c-0.06-0.09-0.11-0.28-0.19-0.34c-0.24-0.19,0.25,0.88,0.12,0.27
				c-0.07-0.35-0.21-0.7-0.29-1.05c-0.07-0.32-0.14-0.65-0.19-0.97c-0.04-0.22-0.06-0.44-0.1-0.65c-0.11-0.55,0.1,0.92,0,0.02
				c-0.08-0.82-0.17-1.65-0.22-2.47c-0.09-1.33-0.12-2.66-0.16-3.99c-0.05-1.93-1-3.1-2.01-4.64c-2.82-4.34-5.65-8.69-8.47-13.03
				c-1.04,1.81-2.08,3.63-3.12,5.44c9.89,0,19.77,0,29.66,0c1.41,0,2.81,0,4.22,0c1.95,0,3.61-1.66,3.61-3.61
				c0-1.96-1.65-3.61-3.61-3.61c-9.89,0-19.77,0-29.66,0c-1.41,0-2.81,0-4.22,0c-2.64,0-4.64,3.11-3.12,5.44
				c3.33,5.12,6.65,10.23,9.98,15.35c-0.16-0.61-0.33-1.22-0.49-1.82c0,2.18,0.11,4.38,0.34,6.55c0.18,1.63,0.34,3.33,0.86,4.89
				c0.73,2.23,2.27,4.07,4.19,5.4c2.41,1.68,6.08,1.83,8.71,0.54c3.55-1.74,5.19-5.22,5.71-8.92c0.39-2.8,0.58-5.64,0.58-8.47
				c-0.16,0.61-0.33,1.22-0.49,1.82c3.58-5.12,7.16-10.23,10.75-15.35c1.12-1.6,0.29-4.02-1.3-4.94
				C1179.11,104.68,1177.09,105.42,1175.97,107.03z"/>
		</g>
	</g>
</g>
<g id="app">
	<g id="logo">
		<g>
			<polygon class="st4" points="300.95,278.19 300.95,309.86 273.35,294.12 			"/>
			<polygon class="st5" points="300.95,278.19 300.95,309.86 328.54,294.2 			"/>
			<polygon class="st6" points="273.35,294.12 273.35,325.8 300.95,310.14 			"/>
			<polygon class="st7" points="300.95,310.06 300.95,341.74 273.35,325.99 			"/>
			<polygon class="st8" points="273.35,325.8 273.35,357.48 300.95,341.81 			"/>
			<polygon class="st9" points="300.95,341.74 300.95,373.41 273.35,357.67 			"/>
			<polygon class="st10" points="328.54,262.25 328.54,293.93 300.95,278.19 			"/>
			<polygon class="st11" points="328.54,262.25 328.54,293.93 356.14,278.19 			"/>
			<polygon class="st6" points="383.74,294.12 383.74,325.8 356.14,310.14 			"/>
			<polygon class="st7" points="356.14,310.06 356.14,341.74 383.74,325.99 			"/>
			<polygon class="st8" points="383.74,325.8 383.74,357.48 356.14,341.81 			"/>
			<polygon class="st9" points="356.14,341.74 356.14,373.41 383.74,357.67 			"/>
			<polygon class="st5" points="356.14,278.19 356.14,309.86 328.54,294.12 			"/>
			<polygon class="st4" points="356.14,278.19 356.14,309.86 383.74,294.12 			"/>
		</g>
		<g>
			<polygon class="st12" points="470.8,278.19 470.8,309.86 443.21,294.12 			"/>
			<polygon class="st13" points="470.8,278.19 470.8,309.86 498.4,294.2 			"/>
			<polygon class="st14" points="498.4,325.99 498.4,357.67 470.8,341.93 			"/>
			<polygon class="st15" points="470.8,341.74 470.8,373.41 443.21,357.67 			"/>
			<polygon class="st16" points="470.8,341.74 470.8,373.41 498.4,357.75 			"/>
			<polygon class="st17" points="498.4,294.12 498.4,325.8 470.8,310.06 			"/>
			<polygon class="st18" points="498.4,325.99 498.4,357.67 526,341.93 			"/>
			<polygon class="st19" points="526,341.74 526,373.41 553.59,357.67 			"/>
			<polygon class="st16" points="526,341.74 526,373.41 498.4,357.75 			"/>
			<polygon class="st20" points="498.4,294.12 498.4,325.8 526,310.06 			"/>
			<polygon class="st21" points="526,278.19 526,309.86 498.4,294.12 			"/>
			<polygon class="st22" points="526,278.19 526,309.86 553.59,294.12 			"/>
		</g>
		<g>
			<polygon class="st23" points="427.27,310.64 427.27,342.32 399.67,326.58 			"/>
			<polygon class="st24" points="399.67,294.7 399.67,326.38 427.27,310.72 			"/>
			<polygon class="st25" points="427.27,342.32 427.27,374 399.67,358.26 			"/>
			<polygon class="st26" points="399.67,326.38 399.67,358.06 427.27,342.4 			"/>
			<polygon class="st27" points="427.27,278.77 427.27,310.45 399.67,294.7 			"/>
		</g>
		<g>
			<polygon class="st28" points="178.12,276.44 178.12,308.11 150.52,292.37 			"/>
			<polygon class="st29" points="178.12,276.44 178.12,308.11 205.72,292.45 			"/>
			<polygon class="st29" points="150.52,292.37 150.52,324.05 178.12,308.39 			"/>
			<polygon class="st30" points="178.12,308.31 178.12,339.99 150.52,324.25 			"/>
			<polygon class="st31" points="150.52,324.05 150.52,355.73 178.12,340.06 			"/>
			<polygon class="st32" points="178.12,339.99 178.12,371.67 150.52,355.92 			"/>
			<polygon class="st33" points="205.72,355.92 205.72,387.6 178.12,371.86 			"/>
			<polygon class="st34" points="178.12,339.99 178.12,371.67 205.72,356 			"/>
			<polygon class="st35" points="205.72,260.5 205.72,292.18 178.12,276.44 			"/>
			<polygon class="st36" points="205.72,260.5 205.72,292.18 233.31,276.44 			"/>
			<polygon class="st37" points="233.31,339.99 233.31,371.67 260.91,355.92 			"/>
			<polygon class="st38" points="205.72,355.92 205.72,387.6 233.31,371.86 			"/>
			<polygon class="st39" points="233.31,339.99 233.31,371.67 205.72,356 			"/>
			<polygon class="st29" points="233.31,276.44 233.31,308.11 205.72,292.37 			"/>
			<polygon class="st40" points="233.31,276.44 233.31,308.11 260.91,292.37 			"/>
		</g>
	</g>
	<g id="window">
		<g>
			<g>
				<path d="M650.8,554.39c-4.21,0-8.41,0-12.62,0c-11.59,0-23.17,0-34.76,0c-17.35,0-34.69,0-52.04,0c-21.71,0-43.42,0-65.12,0
					c-24.47,0-48.93,0-73.4,0c-25.58,0-51.16,0-76.75,0c-25.36,0-50.73,0-76.09,0c-23.5,0-47,0-70.5,0c-20.02,0-40.05,0-60.07,0
					c-15.17,0-30.34,0-45.51,0c-8.69,0-17.37,0-26.06,0c-1.42,0-2.86,0.07-4.28,0c-4.79-0.24-6.48-3.99-6.48-8.07
					c0-8.63,0-17.26,0-25.9c0-16.94,0-33.87,0-50.81c0-22.4,0-44.8,0-67.21c0-25.31,0-50.62,0-75.94c0-25.3,0-50.6,0-75.91
					c0-22.76,0-45.52,0-68.28c0-17.37,0-34.75,0-52.12c0-9.23,0-18.45,0-27.68c0-4.25,1.02-8.57,6.39-8.87c1.15-0.06,2.33,0,3.48,0
					c8.17,0,16.35,0,24.52,0c14.78,0,29.56,0,44.34,0c19.83,0,39.65,0,59.48,0c23.23,0,46.46,0,69.7,0c25.29,0,50.57,0,75.86,0
					c25.71,0,51.42,0,77.13,0c24.5,0,48.99,0,73.49,0c21.94,0,43.89,0,65.83,0c17.75,0,35.49,0,53.24,0c11.97,0,23.94,0,35.91,0
					c4.74,0,9.53-0.21,14.26,0c4.92,0.22,6.45,4.15,6.45,8.24c0,3.21,0,6.41,0,9.62c0,13.21,0,26.41,0,39.62
					c0,20.14,0,40.28,0,60.41c0,24.29,0,48.58,0,72.87c0,25.6,0,51.2,0,76.8c0,24.38,0,48.76,0,73.13c0,20.31,0,40.63,0,60.94
					c0,13.47,0,26.94,0,40.4c0,3.29,0,6.57,0,9.86C657.19,549.74,656.18,554.16,650.8,554.39c-4.63,0.2-4.66,7.43,0,7.23
					c8.63-0.37,13.61-7.15,13.61-15.25c0-3.1,0-6.21,0-9.31c0-13.25,0-26.49,0-39.74c0-20.27,0-40.55,0-60.82
					c0-24.49,0-48.99,0-73.48c0-25.9,0-51.81,0-77.71c0-24.5,0-49.01,0-73.51c0-20.3,0-40.59,0-60.89c0-13.28,0-26.56,0-39.84
					c0-3.14,0-6.28,0-9.41c0-7.87-4.74-14.76-13.18-15.24c-4.36-0.25-8.78-0.02-13.14-0.02c-11.73,0-23.46,0-35.19,0
					c-17.64,0-35.29,0-52.93,0c-21.98,0-43.96,0-65.94,0c-24.73,0-49.46,0-74.2,0c-25.91,0-51.81,0-77.72,0c-25.5,0-51,0-76.5,0
					c-23.51,0-47.03,0-70.54,0c-19.95,0-39.9,0-59.85,0c-14.8,0-29.61,0-44.41,0c-8.08,0-16.16,0-24.23,0
					c-1.76,0-3.51-0.07-5.25,0.21c-7.73,1.23-11.43,8.04-11.43,15.22c0,8.85,0,17.71,0,26.56c0,17.24,0,34.47,0,51.71
					c0,22.81,0,45.62,0,68.43c0,25.57,0,51.15,0,76.72c0,25.53,0,51.06,0,76.59c0,22.68,0,45.35,0,68.03c0,17.01,0,34.03,0,51.04
					c0,8.54,0,17.09,0,25.63c0,8.03,5.11,14.79,13.62,15.09c1.16,0.04,2.32,0,3.48,0c8.31,0,16.63,0,24.94,0
					c14.99,0,29.98,0,44.97,0c20.09,0,40.17,0,60.26,0c23.6,0,47.2,0,70.8,0c25.54,0,51.07,0,76.61,0c25.89,0,51.79,0,77.68,0
					c24.67,0,49.34,0,74.01,0c21.87,0,43.73,0,65.6,0c17.48,0,34.96,0,52.45,0c11.52,0,23.04,0,34.55,0c3.98,0,7.96,0,11.94,0
					C655.45,561.61,655.46,554.39,650.8,554.39z"/>
			</g>
		</g>
		<circle class="st41" cx="632" cy="115.54" r="15.14"/>
		<g>
			<g>
				<path d="M626.01,111.97c2.91,2.91,5.82,5.82,8.73,8.73c0.41,0.41,0.83,0.83,1.24,1.24c0.57,0.57,1.55,0.57,2.12,0
					c0.57-0.57,0.57-1.55,0-2.12c-2.91-2.91-5.82-5.82-8.73-8.73c-0.41-0.41-0.83-0.83-1.24-1.24c-0.57-0.57-1.55-0.57-2.12,0
					C625.43,110.42,625.43,111.39,626.01,111.97L626.01,111.97z"/>
			</g>
		</g>
		<g>
			<g>
				<path d="M635.99,109.13c-3.12,3.12-6.24,6.24-9.36,9.36c-0.44,0.44-0.89,0.89-1.33,1.33c-1.37,1.37,0.75,3.49,2.12,2.12
					c3.12-3.12,6.24-6.24,9.36-9.36c0.44-0.44,0.89-0.89,1.33-1.33C639.47,109.89,637.35,107.76,635.99,109.13L635.99,109.13z"/>
			</g>
		</g>
		<circle class="st41" cx="596.36" cy="115.54" r="15.14"/>
		<g>
			<g>
				<path d="M603.94,118.89c-1.92-3.28-3.84-6.55-5.76-9.83c-0.28-0.47-0.55-0.94-0.83-1.41c-0.57-0.97-2.02-0.97-2.59,0
					c-1.92,3.28-3.84,6.55-5.76,9.83c-0.28,0.47-0.55,0.94-0.83,1.41c-0.58,0.98,0.16,2.26,1.3,2.26c3.84,0,7.67,0,11.51,0
					c0.55,0,1.1,0,1.66,0c1.93,0,1.93-3,0-3c-3.84,0-7.67,0-11.51,0c-0.55,0-1.1,0-1.66,0c0.43,0.75,0.86,1.5,1.3,2.26
					c1.92-3.28,3.84-6.55,5.76-9.83c0.28-0.47,0.55-0.94,0.83-1.41c-0.86,0-1.73,0-2.59,0c1.92,3.28,3.84,6.55,5.76,9.83
					c0.28,0.47,0.55,0.94,0.83,1.41C602.33,122.07,604.92,120.56,603.94,118.89z"/>
			</g>
		</g>
		<circle class="st41" cx="558.35" cy="115.54" r="15.14"/>
		<g>
			<g>
				<path d="M563.4,108.69c-3.12,0-6.24,0-9.37,0c-0.44,0-0.88,0-1.32,0c-0.81,0-1.5,0.69-1.5,1.5c0,3.12,0,6.24,0,9.37
					c0,0.44,0,0.88,0,1.32c0,0.81,0.69,1.5,1.5,1.5c3.12,0,6.24,0,9.37,0c0.44,0,0.88,0,1.32,0c0.81,0,1.5-0.69,1.5-1.5
					c0-3.12,0-6.24,0-9.37c0-0.44,0-0.88,0-1.32C564.9,109.38,564.21,108.69,563.4,108.69c-0.81,0-1.5,0.69-1.5,1.5
					c0,3.12,0,6.24,0,9.37c0,0.44,0,0.88,0,1.32c0.5-0.5,1-1,1.5-1.5c-3.12,0-6.24,0-9.37,0c-0.44,0-0.88,0-1.32,0
					c0.5,0.5,1,1,1.5,1.5c0-3.12,0-6.24,0-9.37c0-0.44,0-0.88,0-1.32c-0.5,0.5-1,1-1.5,1.5c3.12,0,6.24,0,9.37,0
					c0.44,0,0.88,0,1.32,0c0.81,0,1.5-0.69,1.5-1.5C564.9,109.38,564.22,108.69,563.4,108.69z"/>
			</g>
		</g>
		<rect x="45.51" y="139.89" class="st41" width="615.29" height="418.11"/>
	</g>
	<g id="widget4">
		<path class="st42" d="M191,371.11H72c-5.5,0-10-4.5-10-10V286c0-5.5,4.5-10,10-10h119c5.5,0,10,4.5,10,10v75.11
			C201,366.61,196.5,371.11,191,371.11z"/>
		<path class="st42" d="M92,338h-9c-4.95,0-9-4.05-9-9l0,0c0-4.95,4.05-9,9-9h9c4.95,0,9,4.05,9,9l0,0C101,333.95,96.95,338,92,338z
			"/>
		<path class="st42" d="M183,338h-9c-4.95,0-9-4.05-9-9l0,0c0-4.95,4.05-9,9-9h9c4.95,0,9,4.05,9,9l0,0
			C192,333.95,187.95,338,183,338z"/>
		<path class="st42" d="M127,320h9c4.95,0,9,4.05,9,9l0,0c0,4.95-4.05,9-9,9h-9c-4.95,0-9-4.05-9-9l0,0
			C118,324.05,122.05,320,127,320z"/>
		<path class="st42" d="M127,346h9c4.95,0,9,4.05,9,9l0,0c0,4.95-4.05,9-9,9h-9c-4.95,0-9-4.05-9-9l0,0
			C118,350.05,122.05,346,127,346z"/>
		<path class="st42" d="M127,296h9c4.95,0,9,4.05,9,9l0,0c0,4.95-4.05,9-9,9h-9c-4.95,0-9-4.05-9-9l0,0
			C118,300.05,122.05,296,127,296z"/>
	</g>
	<g id="widget3">
		<path class="st42" d="M191,256.11H72c-5.5,0-10-4.5-10-10V171c0-5.5,4.5-10,10-10h119c5.5,0,10,4.5,10,10v75.11
			C201,251.61,196.5,256.11,191,256.11z"/>
		<rect x="71" y="191" class="st43" width="54" height="5"/>
		<rect x="71" y="200" class="st43" width="82" height="5"/>
		<rect x="71" y="209" class="st43" width="66" height="5"/>
		<rect x="71" y="218" class="st43" width="79" height="5"/>
		<rect x="71" y="226" class="st43" width="54" height="5"/>
		<rect x="71" y="235" class="st43" width="92" height="5"/>
	</g>
	<g id="widget1">
		<circle class="st44" cx="574" cy="212" r="17"/>
		<circle class="st44" cx="532.5" cy="212.5" r="17"/>
		<circle class="st44" cx="620.5" cy="212.5" r="17"/>
		<path class="st42" d="M633,256.11H514c-5.5,0-10-4.5-10-10V171c0-5.5,4.5-10,10-10h119c5.5,0,10,4.5,10,10v75.11
			C643,251.61,638.5,256.11,633,256.11z"/>
		<path class="st44" d="M557,212c0,5.41,2.52,10.22,6.46,13.34c2.9,2.29,6.56,3.66,10.54,3.66c3.52,0,6.79-1.07,9.5-2.9
			c4.52-3.06,7.5-8.23,7.5-14.1c0-7.76-5.2-14.31-12.32-16.35c-1.49-0.43-3.06-0.65-4.68-0.65"/>
		<path class="st44" d="M532,229c3.22,0,6.23-0.89,8.79-2.45c4.92-2.98,8.21-8.38,8.21-14.55c0-7.76-5.2-14.31-12.32-16.35
			c-1.49-0.43-3.06-0.65-4.68-0.65"/>
		<path class="st44" d="M637,212c0-7.76-5.2-14.31-12.32-16.35c-1.49-0.43-3.06-0.65-4.68-0.65"/>
		<path class="st42" d="M557,212c0,5.41,2.52,10.22,6.46,13.34c2.9,2.29,6.56,3.66,10.54,3.66c3.52,0,6.79-1.07,9.5-2.9
			c4.52-3.06,7.5-8.23,7.5-14.1c0-7.76-5.2-14.31-12.32-16.35c-1.49-0.43-3.06-0.65-4.68-0.65"/>
		<path class="st42" d="M532,229c3.22,0,6.23-0.89,8.79-2.45c4.92-2.98,8.21-8.38,8.21-14.55c0-7.76-5.2-14.31-12.32-16.35
			c-1.49-0.43-3.06-0.65-4.68-0.65"/>
		<path class="st42" d="M637,212c0-7.76-5.2-14.31-12.32-16.35c-1.49-0.43-3.06-0.65-4.68-0.65"/>
	</g>
	<g id="widget2">
		<path class="st42" d="M633,371.11H514c-5.5,0-10-4.5-10-10V286c0-5.5,4.5-10,10-10h119c5.5,0,10,4.5,10,10v75.11
			C643,366.61,638.5,371.11,633,371.11z"/>
		<polyline class="st44" points="520,339 540,342 558,327 572,340 582,327 608,351 		"/>
		<polyline class="st42" points="520,347 543,328 554,342 565,331 588,340 603,315 618,336 		"/>
		<line class="st44" x1="515.5" y1="293" x2="515.5" y2="363"/>
		<line class="st44" x1="508" y1="356.5" x2="631" y2="356.5"/>
	</g>
	<g id="workspace">
		<g>
			<path d="M276.79,432.34c-5.23-2.46-9.94-4.68-14.66-6.88c-2.37-1.11-4.75-2.2-7.13-3.29c-1.81-0.82-3.08-2.05-3.11-4.18
				c-0.02-2.13,1.18-3.38,3.01-4.22c6.93-3.17,13.84-6.38,20.76-9.58c0.26-0.12,0.5-0.31,1.05-0.67
				c-5.28-2.48-10.32-4.85-15.36-7.21c-2.09-0.98-4.18-1.96-6.29-2.9c-1.82-0.81-3.14-1.98-3.2-4.11c-0.06-2.22,1.22-3.49,3.14-4.38
				c17.66-8.22,35.31-16.46,52.96-24.7c9.42-4.39,18.83-8.81,28.27-13.14c1.44-0.66,2.07-1.44,2.03-3.11
				c-0.09-3.35,1.53-5.14,4.26-5.11c2.79,0.03,4.38,2,4.14,5.43c-0.1,1.4,0.36,1.98,1.62,2.57c26.81,12.45,53.6,24.96,80.39,37.46
				c0.56,0.26,1.11,0.55,1.67,0.8c1.69,0.77,2.69,2.04,2.74,3.93c0.05,2.02-1.04,3.33-2.77,4.14c-5.71,2.69-11.44,5.34-17.16,8.02
				c-1.51,0.7-3.01,1.42-4.94,2.33c4.49,2.11,8.57,4.03,12.66,5.95c3,1.4,5.98,2.83,9.01,4.18c1.92,0.86,3.25,2.08,3.2,4.33
				c-0.05,2.24-1.45,3.38-3.35,4.24c-6.37,2.91-12.71,5.9-19.06,8.87c-0.67,0.31-1.31,0.69-2.34,1.24c3.45,1.63,6.55,3.1,9.65,4.55
				c3.98,1.86,7.95,3.73,11.94,5.55c1.92,0.87,3.22,2.15,3.16,4.37c-0.05,2.11-1.35,3.26-3.18,4.12
				c-28.06,13.07-56.12,26.15-84.15,39.29c-2.3,1.08-4.28,1.06-6.58-0.01c-28.03-13.14-56.09-26.22-84.15-39.3
				c-1.83-0.85-3.1-2.02-3.14-4.13c-0.04-2.23,1.29-3.47,3.19-4.35C262.14,439.2,269.17,435.89,276.79,432.34z M276.94,393.5
				c-0.03,0.14-0.06,0.29-0.08,0.43c0.39,0.21,0.77,0.45,1.17,0.64c20.93,9.78,41.85,19.58,62.82,29.28
				c0.98,0.45,2.58,0.33,3.6-0.14c18.74-8.65,37.44-17.39,56.14-26.12c5.84-2.73,11.67-5.49,17.94-8.44
				c-24.06-11.23-47.71-22.26-71.74-33.48c0,5.67,0.02,10.81,0,15.95c-0.06,12.51-9.47,21.87-22.01,21.88
				c-8.48,0.01-16.96-0.01-25.43-0.01C291.86,393.5,284.4,393.5,276.94,393.5z M266.55,417.91c1.24,0.56,2,0.89,2.74,1.23
				c23.58,11.01,47.17,22,70.72,33.06c1.78,0.83,3.19,0.84,4.97,0c20.27-9.54,40.58-18.99,60.88-28.47
				c3.95-1.85,7.89-3.72,12.35-5.82c-5.24-2.46-10.12-4.38-14.62-6.96c-3.99-2.29-7.28-1.93-11.33,0.04
				c-15.58,7.57-31.36,14.73-47.04,22.08c-1.8,0.85-3.48,0.97-5.31,0.09c-4.09-1.97-8.22-3.87-12.33-5.79
				c-12.98-6.05-25.96-12.1-38.96-18.1c-0.76-0.35-1.89-0.58-2.58-0.27C279.66,411.83,273.34,414.79,266.55,417.91z M417.76,446.92
				c-0.33-0.35-0.45-0.57-0.63-0.65c-5.99-2.83-11.96-5.68-18-8.4c-0.71-0.32-1.85-0.22-2.59,0.13
				c-16.98,7.86-33.94,15.76-50.87,23.73c-2.22,1.05-4.17,1.03-6.37-0.01c-14.83-7-29.83-13.66-44.5-20.99
				c-5.53-2.76-10.19-3.36-15.54,0.01c-3.72,2.35-7.94,3.91-12.25,5.97c0.97,0.51,1.55,0.86,2.16,1.14
				c23.79,11.11,47.59,22.21,71.37,33.36c1.49,0.7,2.71,0.54,4.14-0.13c19.03-8.93,38.09-17.81,57.14-26.7
				C407.09,451.9,412.37,449.44,417.76,446.92z M338.16,355.69c-20.72,9.67-41.02,19.14-61.88,28.87c0.93,0.15,1.2,0.23,1.47,0.23
				c15.95,0.01,31.9,0.08,47.85-0.03c6.76-0.05,12.13-5.23,12.5-12.12C338.39,367.2,338.16,361.72,338.16,355.69z"/>
			<path d="M381.47,261.13c-0.07,0.58-0.19,0.95-0.14,1.3c0.69,5.06-1.03,9.45-3.41,13.81c-2.88,5.26-5.48,10.69-8.07,16.11
				c-1.11,2.31-2.72,3.39-5.27,3.28c-1.99-0.09-3.98-0.02-6.32-0.02c0,4.5,0.04,8.78-0.01,13.06c-0.04,4.08-1.95,7.14-5.58,8.88
				c-1.68,0.8-3.66,0.98-5.91,1.54c0,1.87,0.02,4-0.01,6.13c-0.04,3.1-1.65,4.93-4.29,4.92c-2.63-0.02-4.19-1.84-4.23-4.98
				c-0.02-2.06,0-4.13,0-6.14c-0.43-0.19-0.63-0.33-0.84-0.35c-7.35-0.59-10.66-4.13-10.67-11.44c-0.01-3.76,0-7.53,0-11.61
				c-2.26,0-4.32-0.05-6.38,0.01c-2.43,0.08-4.03-0.88-5.12-3.13c-3.51-7.2-7.19-14.32-10.68-21.52c-0.61-1.25-0.74-2.79-0.85-4.21
				c-0.14-1.75-0.03-5.64-0.03-5.64 M315.04,272.76c2.35,4.7,4.51,9.1,6.77,13.44c0.23,0.44,1.11,0.78,1.68,0.78
				c12.63,0.04,25.25,0.04,37.88,0.01c0.6,0,1.52-0.26,1.74-0.69c2.3-4.4,4.49-8.87,6.82-13.54
				C351.54,272.76,333.54,272.76,315.04,272.76z M335.29,295.79c0,4.26-0.08,8.39,0.09,12.52c0.02,0.6,1.23,1.62,1.92,1.65
				c3.45,0.17,6.92,0.17,10.38,0c0.69-0.03,1.89-1.06,1.91-1.66c0.17-4.12,0.09-8.26,0.09-12.51
				C344.81,295.79,340.16,295.79,335.29,295.79z"/>
			<path class="st45" d="M276.94,393.5c7.46,0,14.93,0,22.39,0c8.48,0,16.96,0.02,25.43,0.01c12.54-0.02,21.96-9.38,22.01-21.88
				c0.02-5.14,0-10.29,0-15.95c24.03,11.21,47.68,22.25,71.74,33.48c-6.27,2.95-12.09,5.71-17.94,8.44
				c-18.7,8.73-37.4,17.47-56.14,26.12c-1.02,0.47-2.61,0.6-3.6,0.14c-20.97-9.69-41.89-19.49-62.82-29.28
				c-0.4-0.19-0.78-0.43-1.17-0.64C276.88,393.79,276.91,393.64,276.94,393.5z"/>
			<path class="st45" d="M266.55,417.91c6.79-3.12,13.12-6.08,19.5-8.9c0.7-0.31,1.83-0.08,2.58,0.27c13,6,25.98,12.05,38.96,18.1
				c4.12,1.92,8.24,3.82,12.33,5.79c1.82,0.88,3.5,0.76,5.31-0.09c15.69-7.35,31.46-14.51,47.04-22.08
				c4.05-1.97,7.34-2.32,11.33-0.04c4.5,2.58,9.37,4.5,14.62,6.96c-4.46,2.1-8.4,3.97-12.35,5.82
				c-20.3,9.48-40.61,18.93-60.88,28.47c-1.78,0.84-3.2,0.83-4.97,0c-23.55-11.06-47.14-22.05-70.72-33.06
				C268.54,418.79,267.79,418.47,266.55,417.91z"/>
			<path class="st45" d="M417.76,446.92c-5.39,2.52-10.67,4.98-15.95,7.45c-19.05,8.89-38.11,17.77-57.14,26.7
				c-1.43,0.67-2.64,0.83-4.14,0.13c-23.78-11.15-47.58-22.24-71.37-33.36c-0.61-0.28-1.19-0.62-2.16-1.14
				c4.31-2.06,8.53-3.62,12.25-5.97c5.35-3.37,10.01-2.78,15.54-0.01c14.67,7.33,29.66,14,44.5,20.99c2.2,1.04,4.15,1.06,6.37,0.01
				c16.93-7.97,33.89-15.86,50.87-23.73c0.74-0.34,1.88-0.45,2.59-0.13c6.03,2.73,12.01,5.58,18,8.4
				C417.31,446.35,417.43,446.57,417.76,446.92z"/>
			<path class="st45" d="M338.16,355.69c0,6.03,0.23,11.51-0.06,16.96c-0.36,6.89-5.73,12.07-12.5,12.12
				c-15.95,0.11-31.9,0.04-47.85,0.03c-0.27,0-0.55-0.08-1.47-0.23C297.15,374.83,317.45,365.35,338.16,355.69z"/>
			<path class="st45" d="M303.39,252.3"/>
			<path class="st45" d="M303.39,238.3"/>
			<path class="st45" d="M381.5,252.28c0-4.8,0-9.26,0-13.92"/>
			<path class="st45" d="M315.04,272.76c18.5,0,36.5,0,54.9,0c-2.33,4.68-4.52,9.14-6.82,13.54c-0.22,0.43-1.15,0.69-1.74,0.69
				c-12.63,0.04-25.25,0.04-37.88-0.01c-0.58,0-1.45-0.34-1.68-0.78C319.54,281.86,317.38,277.46,315.04,272.76z"/>
			<path class="st45" d="M335.29,295.79c4.86,0,9.51,0,14.39,0c0,4.25,0.08,8.38-0.09,12.51c-0.02,0.61-1.22,1.63-1.91,1.66
				c-3.45,0.17-6.92,0.17-10.38,0c-0.7-0.03-1.9-1.05-1.92-1.65C335.21,304.18,335.29,300.04,335.29,295.79z"/>
		</g>
	</g>
</g>
</svg>
